<svg xmlns="http://www.w3.org/2000/svg" xml:space="preserve" width="1024" height="768"><path fill="#e69e00" d="M238.416 717.494h778.279L627.555 41.683z"/><path fill="#f72331" d="M287.451 624.76h681.466L628.184 32.79z"/><path fill="#009995" d="M337.744 537.108h580.88L628.184 32.791z"/><path fill="#801de1" d="M389.294 449.456h477.78L628.184 32.79z"/><path fill="#3b5998" d="M449.645 342.749h357.078L628.184 32.79z"/><path fill="#e8f4fb" d="M483.237 376.113c-2.324 0-4.564-.67-5.92-2.404l1.77-1.538a5.54 5.54 0 0 0 4.122 1.846c1.604 0 3.238-.671 3.238-2.126 0-1.397-.942-1.732-2.684-2.124l-1.854-.419c-1.964-.448-3.762-1.509-3.762-3.633 0-2.683 2.13-4.417 5.257-4.417 2.296 0 3.929.503 5.062 1.873l-1.715 1.482c-.968-.924-1.853-1.287-3.431-1.287-1.522 0-2.6.783-2.6 1.93 0 1.174 1.106 1.565 2.434 1.844l2.185.475c1.964.42 3.763 1.593 3.763 3.886 0 3.102-3.072 4.612-5.865 4.612m14.577 0c-3.458 0-6.336-1.845-6.336-5.758v-2.962c0-3.97 2.684-6.066 6.06-6.066 3.125 0 5.615 1.93 5.615 5.619v2.515h-9.047v.894c0 2.124 1.466 3.578 3.819 3.578 1.3 0 2.517-.839 3.264-1.874l1.964 1.006c-1.245 2.041-3.21 3.048-5.339 3.048m2.821-9.196c0-1.958-1.023-3.411-3.125-3.411-2.047 0-3.404 1.313-3.404 3.355v.699h6.53zm9.127 9.112c-2.71 0-3.348-1.874-3.348-3.633v-16.548h2.545v16.492c0 .838.388 1.509 1.44 1.509.525 0 1.023-.056 1.549-.139.055-.028.11-.028.137-.028v1.957c-.746.222-1.63.39-2.323.39m10.373-18.224c-.997 0-1.687.559-1.687 1.565v2.404h2.738v1.957h-2.738v12.046h-2.546v-12.046h-2.324v-1.957h2.324v-1.817c0-1.426.222-4.276 3.929-4.276.47 0 .968.056 1.41.084v2.094c-.359-.026-.745-.054-1.106-.054m3.154 11.46v-2.18h7.8v2.18zm16.624 6.848c-3.458 0-6.335-1.845-6.335-5.758v-2.962c0-3.97 2.684-6.066 6.058-6.066 3.126 0 5.617 1.93 5.617 5.619v2.515h-9.047v.894c0 2.124 1.466 3.578 3.819 3.578 1.298 0 2.517-.839 3.264-1.874l1.964 1.006c-1.245 2.041-3.21 3.048-5.34 3.048m2.822-9.196c0-1.958-1.023-3.411-3.125-3.411-2.048 0-3.404 1.313-3.404 3.355v.699h6.53zm10.593 9.196c-2.324 0-4.564-.67-5.92-2.404l1.771-1.538a5.54 5.54 0 0 0 4.12 1.846c1.606 0 3.238-.671 3.238-2.126 0-1.397-.942-1.732-2.683-2.124l-1.855-.419c-1.964-.448-3.762-1.509-3.762-3.633 0-2.683 2.13-4.417 5.256-4.417 2.296 0 3.93.503 5.063 1.873l-1.716 1.482c-.968-.924-1.853-1.287-3.431-1.287-1.52 0-2.6.783-2.6 1.93 0 1.174 1.107 1.565 2.436 1.844l2.186.475c1.963.42 3.761 1.593 3.761 3.886.002 3.102-3.069 4.612-5.864 4.612m13.333-.112c-1.855 0-3.708-.755-3.708-3.298v-8.944h-2.296v-2.07h2.27v-4.61h2.543v4.61h3.819v2.04h-3.819v8.442c0 1.201.636 1.65 1.689 1.65.83 0 1.576-.168 2.24-.363v2.068c-.912.335-2.13.475-2.738.475m10.98.112c-3.458 0-6.334-1.845-6.334-5.758v-2.962c0-3.97 2.683-6.066 6.059-6.066 3.125 0 5.615 1.93 5.615 5.619v2.515h-9.045v.894c0 2.124 1.466 3.578 3.817 3.578 1.3 0 2.517-.839 3.265-1.874l1.964 1.006c-1.245 2.041-3.21 3.048-5.34 3.048m2.823-9.196c0-1.958-1.024-3.411-3.126-3.411-2.047 0-3.402 1.313-3.402 3.355v.699h6.528zm11.505 9.196c-3.457 0-6.335-1.845-6.335-5.758v-2.962c0-3.97 2.684-6.066 6.059-6.066 3.126 0 5.615 1.93 5.615 5.619v2.515h-9.045v.894c0 2.124 1.466 3.578 3.817 3.578 1.301 0 2.517-.839 3.265-1.874l1.964 1.006c-1.244 2.041-3.208 3.048-5.34 3.048m2.822-9.196c0-1.958-1.024-3.411-3.126-3.411-2.047 0-3.402 1.313-3.402 3.355v.699h6.528zm23.015 8.86v-8.86c0-2.152-.94-3.355-2.684-3.355-1.964 0-3.375 1.76-3.375 3.942v8.273h-2.545v-8.832c0-2.096-.858-3.382-2.683-3.382-1.578 0-3.377 1.425-3.377 3.857v8.357h-2.544v-14.144h2.462v2.096h.056c.995-1.509 2.323-2.404 4.233-2.404 2.046 0 3.29 1.006 3.955 2.432 0 0 .111 0 .111-.028.995-1.454 2.407-2.404 4.426-2.404 2.767 0 4.51 1.9 4.51 4.64v9.812zm7.993 2.99h-1.466l.747-3.075h-.913v-3.577h2.821v3.521zm17.122-2.654c-3.514 0-6.004-2.04-6.004-5.73v-3.075c0-3.745 2.519-5.982 5.947-5.982 3.321 0 5.644 1.93 5.644 4.948v.363h-2.461v-.363c0-1.425-1.08-2.767-3.154-2.767s-3.348 1.286-3.348 3.633v3.27c0 2.096 1.107 3.55 3.376 3.55 2.075 0 3.126-1.342 3.126-2.74v-.335h2.461v.28c0 3.047-2.268 4.948-5.587 4.948m13.885 0c-3.515 0-5.894-2.013-5.894-5.618v-3.299c0-3.745 2.63-5.87 5.866-5.87 3.484 0 5.893 2.208 5.893 5.814v3.13c0 3.747-2.657 5.843-5.865 5.843M660.07 367c0-2.069-1.023-3.494-3.266-3.494-2.074 0-3.291 1.286-3.291 3.577v3.355c0 2.068 1.022 3.52 3.265 3.52 2.074 0 3.292-1.285 3.292-3.577zm14.77 8.776v-8.86c0-2.264-1.106-3.355-2.766-3.355-1.91 0-3.486 1.565-3.486 4.052v8.163h-2.544v-14.144h2.49v2.096h.054c.97-1.509 2.352-2.404 4.233-2.404 3.043 0 4.566 2.152 4.566 4.836v9.616zm11.838-17.972c-.994 0-1.687.559-1.687 1.565v2.404h2.738v1.957h-2.738v12.046h-2.545V363.73h-2.325v-1.957h2.325v-1.817c0-1.426.223-4.276 3.928-4.276.471 0 .97.056 1.412.084v2.094c-.361-.026-.746-.054-1.108-.054m4.011.978v-3.046h2.544v3.046zm0 16.994v-14.144h2.544v14.144zm15.16 0v-1.818h-.056c-.859 1.258-2.518 2.152-4.038 2.152-3.044 0-5.148-1.956-5.148-5.086v-4.333c0-3.69 2.768-5.367 5.534-5.367 1.438 0 2.876.726 3.57 1.788h.08v-7.267h2.546v19.931zm-.056-9.084c0-2.095-1.688-3.242-3.431-3.242-1.548 0-3.155.978-3.155 3.186v4.25c0 1.732 1.08 3.018 3.126 3.018 1.633 0 3.459-1.2 3.459-3.354v-3.858zm12.225 9.42c-3.458 0-6.336-1.845-6.336-5.758v-2.962c0-3.97 2.685-6.066 6.058-6.066 3.126 0 5.617 1.93 5.617 5.619v2.515h-9.047v.894c0 2.124 1.466 3.578 3.819 3.578 1.3 0 2.517-.839 3.264-1.874l1.964 1.006c-1.245 2.041-3.21 3.048-5.339 3.048m2.821-9.196c0-1.958-1.023-3.411-3.125-3.411-2.048 0-3.404 1.313-3.404 3.355v.699h6.53zm14.605 8.86v-8.86c0-2.264-1.105-3.355-2.764-3.355-1.91 0-3.487 1.565-3.487 4.052v8.163h-2.544v-14.144h2.49v2.096h.054c.97-1.509 2.352-2.404 4.233-2.404 3.043 0 4.566 2.152 4.566 4.836v9.616zm11.784.336c-3.513 0-6.002-2.04-6.002-5.73v-3.075c0-3.745 2.517-5.982 5.947-5.982 3.32 0 5.643 1.93 5.643 4.948v.363h-2.462v-.363c0-1.425-1.08-2.767-3.155-2.767-2.076 0-3.347 1.286-3.347 3.633v3.27c0 2.096 1.108 3.55 3.376 3.55 2.073 0 3.126-1.342 3.126-2.74v-.335h2.462v.28c0 3.047-2.27 4.948-5.588 4.948m14.3 0c-3.457 0-6.335-1.845-6.335-5.758v-2.962c0-3.97 2.684-6.066 6.058-6.066 3.126 0 5.616 1.93 5.616 5.619v2.515h-9.046v.894c0 2.124 1.466 3.578 3.818 3.578 1.3 0 2.518-.839 3.264-1.874l1.964 1.006c-1.244 2.041-3.21 3.048-5.338 3.048m2.822-9.196c0-1.958-1.023-3.411-3.126-3.411-2.048 0-3.403 1.313-3.403 3.355v.699h6.53zm7.384 11.85h-1.466l.747-3.075h-.914v-3.577h2.823v3.521zM443.9 407.536c-.027-.335-.11-1.118-.11-1.454h-.083c-1.162 1.257-2.38 1.762-4.04 1.762-2.656 0-4.84-1.399-4.84-4.053 0-3.299 3.014-4.472 5.42-4.472h3.486v-1.65c0-1.817-1.106-2.626-2.906-2.626-1.493 0-2.904.53-2.904 1.9v.447h-2.325v-.307c0-2.99 2.656-4.025 5.312-4.025 2.85 0 5.34 1.062 5.34 4.276v7.24c0 .838.083 2.347.221 2.962zm-.166-6.317h-3.348c-1.604 0-3.015.503-3.015 2.375 0 1.51 1.245 2.182 2.767 2.182 2.38 0 3.596-1.314 3.596-3.216zm11.81 6.653c-3.513 0-6.003-2.04-6.003-5.73v-3.075c0-3.745 2.517-5.982 5.947-5.982 3.32 0 5.644 1.93 5.644 4.948v.363h-2.462v-.363c0-1.425-1.079-2.767-3.153-2.767-2.075 0-3.349 1.286-3.349 3.633v3.27c0 2.096 1.107 3.55 3.376 3.55 2.075 0 3.126-1.342 3.126-2.74v-.335h2.462v.28c.001 3.047-2.267 4.948-5.588 4.948m17.399-.336v-8.86c0-2.264-1.106-3.355-2.766-3.355-1.909 0-3.485 1.565-3.485 4.052v8.163h-2.545v-19.929h2.545v7.883h.055c.97-1.537 2.38-2.405 4.178-2.405 3.043 0 4.564 2.152 4.564 4.836v9.615zm6.416-16.994v-3.046h2.545v3.046zm0 16.994v-14.144h2.545v14.144zm12.226.336c-3.457 0-6.335-1.845-6.335-5.757v-2.963c0-3.97 2.683-6.066 6.059-6.066 3.125 0 5.615 1.93 5.615 5.619v2.515h-9.047v.895c0 2.123 1.466 3.577 3.819 3.577 1.3 0 2.517-.839 3.264-1.874l1.964 1.006c-1.244 2.042-3.208 3.048-5.339 3.048m2.823-9.196c0-1.958-1.024-3.411-3.126-3.411-2.047 0-3.403 1.313-3.403 3.355v.699h6.529zm11.838 8.888h-2.6l-4.925-14.172h2.683l3.568 10.957h.055l3.569-10.957h2.573zm13.11.308c-3.457 0-6.335-1.845-6.335-5.757v-2.963c0-3.97 2.685-6.066 6.058-6.066 3.126 0 5.616 1.93 5.616 5.619v2.515h-9.046v.895c0 2.123 1.466 3.577 3.819 3.577 1.3 0 2.517-.839 3.264-1.874l1.963 1.006c-1.244 2.042-3.208 3.048-5.338 3.048m2.822-9.196c0-1.958-1.023-3.411-3.125-3.411-2.049 0-3.404 1.313-3.404 3.355v.699h6.53zm23.015 8.86v-8.86c0-2.152-.94-3.355-2.684-3.355-1.964 0-3.375 1.76-3.375 3.942v8.273h-2.544v-8.832c0-2.096-.86-3.382-2.683-3.382-1.578 0-3.378 1.425-3.378 3.857v8.357h-2.543v-14.144h2.462v2.097h.055c.996-1.51 2.324-2.405 4.233-2.405 2.046 0 3.29 1.006 3.956 2.432 0 0 .11 0 .11-.027.995-1.455 2.407-2.405 4.426-2.405 2.768 0 4.51 1.9 4.51 4.64v9.812zm12.115.336c-3.458 0-6.336-1.845-6.336-5.757v-2.963c0-3.97 2.684-6.066 6.058-6.066 3.126 0 5.616 1.93 5.616 5.619v2.515H553.6v.895c0 2.123 1.466 3.577 3.818 3.577 1.3 0 2.518-.839 3.264-1.874l1.964 1.006c-1.244 2.042-3.21 3.048-5.338 3.048m2.821-9.196c0-1.958-1.023-3.411-3.126-3.411-2.048 0-3.403 1.313-3.403 3.355v.699h6.53zm14.604 8.86v-8.86c0-2.264-1.105-3.355-2.765-3.355-1.91 0-3.486 1.565-3.486 4.052v8.163h-2.544v-14.144h2.49v2.097h.054c.969-1.51 2.352-2.405 4.233-2.405 3.043 0 4.565 2.152 4.565 4.836v9.616zm10.872.224c-1.855 0-3.708-.755-3.708-3.298v-8.944h-2.296v-2.07h2.27v-4.61h2.543v4.61h3.819v2.04h-3.819v8.442c0 1.202.636 1.65 1.689 1.65.83 0 1.576-.168 2.24-.363v2.068c-.914.335-2.13.475-2.738.475m6.859 2.767h-1.466l.746-3.076h-.914v-3.577h2.822v3.521zm18.282-14.981c-.442 0-1.216.084-1.603.223-1.44.531-2.463 1.984-2.463 4.053v7.714h-2.543v-14.144h2.489v2.516h.054c1.051-1.733 2.767-2.74 4.622-2.74.414 0 .913.085 1.243.113v2.375c-.331-.056-1.66-.11-1.799-.11m10.125 12.326c-3.457 0-6.335-1.845-6.335-5.757v-2.963c0-3.97 2.684-6.066 6.058-6.066 3.125 0 5.616 1.93 5.616 5.619v2.515h-9.046v.895c0 2.123 1.466 3.577 3.818 3.577 1.3 0 2.517-.839 3.264-1.874l1.964 1.006c-1.246 2.042-3.21 3.048-5.339 3.048m2.822-9.196c0-1.958-1.024-3.411-3.126-3.411-2.048 0-3.403 1.313-3.403 3.355v.699h6.529zm10.594 9.196c-2.325 0-4.565-.67-5.92-2.404l1.77-1.538a5.54 5.54 0 0 0 4.121 1.846c1.604 0 3.238-.671 3.238-2.126 0-1.397-.942-1.732-2.685-2.124l-1.854-.419c-1.964-.448-3.762-1.509-3.762-3.633 0-2.683 2.13-4.417 5.257-4.417 2.296 0 3.928.503 5.062 1.873l-1.715 1.482c-.97-.923-1.854-1.287-3.43-1.287-1.523 0-2.6.783-2.6 1.93 0 1.174 1.105 1.565 2.434 1.844l2.185.475c1.964.42 3.762 1.593 3.762 3.886.001 3.102-3.07 4.612-5.863 4.612m15.212 0c-1.549 0-3.015-.726-3.708-1.789h-.081v7.044h-2.545v-19.733h2.49v1.956h.055c1.023-1.537 2.518-2.264 4.038-2.264 3.044 0 5.148 1.958 5.148 5.088v4.332c-.002 3.688-2.63 5.366-5.397 5.366m2.795-9.56c0-1.732-1.079-3.02-3.125-3.02-1.634 0-3.46 1.426-3.46 3.551v3.578c0 2.068 1.743 3.325 3.486 3.325 1.549 0 3.1-.98 3.1-3.187zm11.672 9.56c-3.458 0-6.336-1.845-6.336-5.757v-2.963c0-3.97 2.685-6.066 6.058-6.066 3.126 0 5.617 1.93 5.617 5.619v2.515h-9.047v.895c0 2.123 1.466 3.577 3.819 3.577 1.3 0 2.517-.839 3.264-1.874l1.964 1.006c-1.245 2.042-3.21 3.048-5.339 3.048m2.821-9.196c0-1.958-1.023-3.411-3.125-3.411-2.048 0-3.404 1.313-3.404 3.355v.699h6.53zm11.175 9.196c-3.513 0-6.002-2.04-6.002-5.73v-3.075c0-3.745 2.517-5.982 5.947-5.982 3.32 0 5.643 1.93 5.643 4.948v.363h-2.462v-.363c0-1.425-1.079-2.767-3.155-2.767s-3.346 1.286-3.346 3.633v3.27c0 2.096 1.107 3.55 3.375 3.55 2.074 0 3.126-1.342 3.126-2.74v-.335h2.462v.28c0 3.047-2.27 4.948-5.588 4.948m13.056-.112c-1.854 0-3.707-.755-3.707-3.298v-8.944h-2.296v-2.07h2.27v-4.61h2.543v4.61h3.818v2.04h-3.818v8.442c0 1.202.636 1.65 1.688 1.65.83 0 1.577-.168 2.24-.363v2.068c-.913.335-2.13.475-2.738.475m17.204.112c-3.514 0-5.894-2.013-5.894-5.618v-3.299c0-3.745 2.629-5.87 5.865-5.87 3.486 0 5.893 2.208 5.893 5.814v3.13c0 3.747-2.654 5.843-5.864 5.843m3.264-9.112c0-2.068-1.023-3.494-3.264-3.494-2.074 0-3.293 1.286-3.293 3.577v3.355c0 2.068 1.024 3.52 3.266 3.52 2.074 0 3.291-1.285 3.291-3.577zm11.397-9.196c-.997 0-1.689.559-1.689 1.565v2.404h2.74v1.957h-2.74v12.046h-2.545V395.49h-2.323v-1.957h2.323v-1.817c0-1.426.221-4.276 3.93-4.276.468 0 .967.056 1.409.084v2.094a15 15 0 0 0-1.105-.054m15.93 18.308c-3.512 0-5.892-2.013-5.892-5.618v-3.299c0-3.745 2.628-5.87 5.864-5.87 3.485 0 5.894 2.208 5.894 5.814v3.13c0 3.747-2.656 5.843-5.866 5.843m3.266-9.112c0-2.068-1.023-3.494-3.266-3.494-2.074 0-3.29 1.286-3.29 3.577v3.355c0 2.068 1.022 3.52 3.263 3.52 2.075 0 3.293-1.285 3.293-3.577zm10.427 9c-1.854 0-3.708-.755-3.708-3.298v-8.944h-2.295v-2.07h2.269v-4.61h2.545v4.61h3.817v2.04h-3.817v8.442c0 1.202.636 1.65 1.688 1.65.83 0 1.577-.168 2.24-.363v2.068c-.913.335-2.13.475-2.739.475m14.08-.224v-8.86c0-2.264-1.107-3.355-2.766-3.355-1.909 0-3.486 1.565-3.486 4.052v8.163h-2.545v-19.929h2.545v7.883h.056c.969-1.537 2.38-2.405 4.176-2.405 3.044 0 4.566 2.152 4.566 4.836v9.615zm12.115.336c-3.457 0-6.335-1.845-6.335-5.757v-2.963c0-3.97 2.684-6.066 6.057-6.066 3.126 0 5.617 1.93 5.617 5.619v2.515h-9.047v.895c0 2.123 1.466 3.577 3.819 3.577 1.3 0 2.517-.839 3.264-1.874l1.964 1.006c-1.245 2.042-3.21 3.048-5.339 3.048m2.822-9.196c0-1.958-1.024-3.411-3.126-3.411-2.048 0-3.404 1.313-3.404 3.355v.699h6.53zm12.335-3.13c-.442 0-1.216.084-1.603.223-1.44.531-2.463 1.984-2.463 4.053v7.714h-2.544v-14.144h2.49v2.516h.054c1.051-1.733 2.767-2.74 4.622-2.74.414 0 .913.085 1.243.113v2.375c-.332-.056-1.66-.11-1.799-.11m9.211 12.326c-2.323 0-4.565-.67-5.92-2.404l1.77-1.538a5.54 5.54 0 0 0 4.123 1.846c1.603 0 3.236-.671 3.236-2.126 0-1.397-.94-1.732-2.684-2.124l-1.855-.419c-1.964-.448-3.762-1.509-3.762-3.633 0-2.683 2.131-4.417 5.258-4.417 2.296 0 3.928.503 5.06 1.873l-1.713 1.482c-.97-.923-1.854-1.287-3.431-1.287-1.523 0-2.6.783-2.6 1.93 0 1.174 1.106 1.565 2.434 1.844l2.185.475c1.964.42 3.763 1.593 3.763 3.886.002 3.102-3.07 4.612-5.864 4.612m10.456 2.655h-1.466l.747-3.076h-.914v-3.577h2.821v3.521zm-286.578 16.777c-.442 0-1.218.084-1.603.223-1.44.531-2.463 1.985-2.463 4.053v7.714h-2.545V425.15h2.49v2.515h.055c1.051-1.733 2.766-2.74 4.62-2.74.414 0 .914.085 1.244.113v2.375c-.332-.056-1.658-.11-1.798-.11m10.124 12.326c-3.457 0-6.334-1.845-6.334-5.757v-2.963c0-3.97 2.683-6.066 6.058-6.066 3.125 0 5.616 1.93 5.616 5.619v2.515h-9.046v.895c0 2.124 1.466 3.577 3.818 3.577 1.299 0 2.517-.839 3.264-1.874l1.964 1.006c-1.245 2.042-3.209 3.048-5.34 3.048m2.823-9.196c0-1.958-1.024-3.411-3.126-3.411-2.048 0-3.403 1.313-3.403 3.355v.699h6.529zm10.593 9.196c-2.325 0-4.564-.67-5.92-2.404l1.77-1.538a5.54 5.54 0 0 0 4.12 1.846c1.606 0 3.238-.671 3.238-2.126 0-1.397-.941-1.732-2.683-2.124l-1.854-.419c-1.964-.448-3.762-1.509-3.762-3.633 0-2.683 2.129-4.417 5.256-4.417 2.295 0 3.929.503 5.063 1.873l-1.717 1.482c-.968-.923-1.853-1.287-3.43-1.287-1.52 0-2.6.783-2.6 1.93 0 1.174 1.107 1.565 2.436 1.844l2.185.475c1.964.42 3.762 1.593 3.762 3.886.001 3.102-3.07 4.612-5.864 4.612m15.215 0c-1.55 0-3.015-.726-3.708-1.789h-.083v7.044h-2.544v-19.733h2.49v1.956h.054c1.023-1.537 2.518-2.264 4.04-2.264 3.042 0 5.146 1.958 5.146 5.088v4.332c-.002 3.688-2.63 5.366-5.395 5.366m2.792-9.56c0-1.732-1.079-3.02-3.126-3.02-1.632 0-3.458 1.426-3.458 3.551v3.578c0 2.068 1.743 3.325 3.486 3.325 1.55 0 3.098-.979 3.098-3.187zm11.673 9.56c-3.458 0-6.334-1.845-6.334-5.757v-2.963c0-3.97 2.683-6.066 6.057-6.066 3.126 0 5.617 1.93 5.617 5.619v2.515h-9.047v.895c0 2.124 1.466 3.577 3.819 3.577 1.299 0 2.517-.839 3.264-1.874l1.964 1.006c-1.246 2.042-3.21 3.048-5.34 3.048m2.823-9.196c0-1.958-1.024-3.411-3.126-3.411-2.048 0-3.404 1.313-3.404 3.355v.699h6.53zm11.172 9.196c-3.514 0-6.003-2.04-6.003-5.73v-3.075c0-3.745 2.518-5.982 5.947-5.982 3.32 0 5.644 1.93 5.644 4.948v.363h-2.462v-.363c0-1.425-1.079-2.767-3.153-2.767-2.075 0-3.349 1.286-3.349 3.633v3.27c0 2.096 1.107 3.55 3.376 3.55 2.075 0 3.126-1.342 3.126-2.74v-.335h2.462v.28c.001 3.047-2.267 4.948-5.588 4.948m13.056-.112c-1.854 0-3.706-.755-3.706-3.298v-8.944h-2.296v-2.07h2.268v-4.61h2.545v4.61h3.818v2.04h-3.818v8.442c0 1.202.636 1.65 1.687 1.65.83 0 1.577-.168 2.242-.363v2.068c-.914.335-2.131.475-2.74.475m18.201.112c-1.577 0-3.043-.782-3.762-1.817h-.056v1.481h-2.46v-19.929h2.543v7.743h.026c.97-1.397 2.49-2.264 4.012-2.264 3.043 0 5.145 1.958 5.145 5.088v4.332c.001 3.688-2.682 5.366-5.448 5.366m2.848-9.56c0-1.732-1.078-3.02-3.126-3.02-1.632 0-3.457 1.426-3.457 3.551v3.578c0 2.068 1.744 3.325 3.485 3.325 1.549 0 3.098-.979 3.098-3.187zm11.26 11.517c-.86 2.404-2.489 3.214-4.4 3.214-.414 0-1.299-.084-1.798-.169v-2.18c.498.084 1.384.168 1.687.168 1.08 0 1.77-.475 2.131-1.425l.803-2.18-5.119-13.892h2.767l3.625 10.705h.054l3.514-10.705h2.6zm20.273-1.957c-3.514 0-5.894-2.013-5.894-5.618v-3.299c0-3.745 2.63-5.87 5.866-5.87 3.485 0 5.893 2.208 5.893 5.814v3.13c0 3.747-2.655 5.843-5.865 5.843m3.264-9.112c0-2.068-1.023-3.494-3.264-3.494-2.074 0-3.292 1.286-3.292 3.577v3.355c0 2.068 1.023 3.52 3.265 3.52 2.074 0 3.291-1.285 3.291-3.577zm10.429 9c-1.855 0-3.707-.755-3.707-3.298v-8.944h-2.296v-2.07h2.268v-4.61h2.545v4.61h3.819v2.04h-3.819v8.442c0 1.202.636 1.65 1.688 1.65.83 0 1.576-.168 2.241-.363v2.068c-.914.335-2.13.475-2.74.475m14.08-.224v-8.86c0-2.264-1.109-3.355-2.768-3.355-1.909 0-3.484 1.565-3.484 4.052v8.163h-2.546v-19.929h2.546v7.883h.054c.97-1.537 2.38-2.405 4.178-2.405 3.044 0 4.564 2.152 4.564 4.836v9.615zm12.113.336c-3.457 0-6.334-1.845-6.334-5.757v-2.963c0-3.97 2.683-6.066 6.059-6.066 3.126 0 5.615 1.93 5.615 5.619v2.515h-9.045v.895c0 2.124 1.466 3.577 3.817 3.577 1.3 0 2.517-.839 3.265-1.874l1.964 1.006c-1.244 2.042-3.21 3.048-5.34 3.048m2.823-9.196c0-1.958-1.023-3.411-3.126-3.411-2.047 0-3.402 1.313-3.402 3.355v.699h6.528zm12.337-3.13c-.444 0-1.219.084-1.605.223-1.44.531-2.461 1.985-2.461 4.053v7.714h-2.546V425.15h2.49v2.515h.056c1.05-1.733 2.764-2.74 4.619-2.74.415 0 .914.085 1.245.113v2.375c-.332-.056-1.661-.11-1.798-.11m9.21 12.326c-2.325 0-4.564-.67-5.92-2.404l1.77-1.538a5.54 5.54 0 0 0 4.12 1.846c1.606 0 3.238-.671 3.238-2.126 0-1.397-.941-1.732-2.683-2.124l-1.854-.419c-1.964-.448-3.762-1.509-3.762-3.633 0-2.683 2.128-4.417 5.255-4.417 2.296 0 3.93.503 5.064 1.873l-1.717 1.482c-.968-.923-1.853-1.287-3.43-1.287-1.521 0-2.6.783-2.6 1.93 0 1.174 1.107 1.565 2.436 1.844l2.185.475c1.964.42 3.762 1.593 3.762 3.886.001 3.102-3.07 4.612-5.864 4.612m-298.453 47.113c-.996 0-1.688.56-1.688 1.565v2.405h2.739v1.956h-2.739v12.047h-2.545v-12.047h-2.323v-1.956h2.323v-1.818c0-1.425.222-4.276 3.93-4.276.47 0 .968.056 1.41.084v2.095a15 15 0 0 0-1.107-.055m10.538 5.982c-.442 0-1.217.084-1.604.224-1.44.53-2.462 1.984-2.462 4.052v7.715h-2.545V490.57h2.49v2.515h.055c1.051-1.732 2.766-2.739 4.62-2.739.416 0 .914.084 1.246.112v2.376c-.332-.056-1.66-.11-1.8-.11m4.426-5.004v-3.046h2.545v3.046zm0 16.995V490.57h2.545v14.144zm12.225.335c-3.458 0-6.336-1.844-6.336-5.757v-2.962c0-3.97 2.683-6.066 6.06-6.066 3.125 0 5.615 1.93 5.615 5.619v2.515h-9.047v.894c0 2.124 1.466 3.577 3.819 3.577 1.3 0 2.517-.838 3.264-1.873l1.964 1.006c-1.244 2.041-3.208 3.047-5.339 3.047m2.823-9.196c0-1.957-1.024-3.41-3.126-3.41-2.047 0-3.404 1.313-3.404 3.354v.7h6.53zm14.605 8.86v-8.86c0-2.263-1.107-3.355-2.766-3.355-1.909 0-3.486 1.565-3.486 4.053v8.162h-2.545V490.57h2.49v2.096h.055c.968-1.51 2.353-2.405 4.234-2.405 3.042 0 4.564 2.152 4.564 4.836v9.615h-2.546zm15.047 0v-1.817h-.055c-.858 1.258-2.517 2.152-4.039 2.152-3.042 0-5.146-1.956-5.146-5.086v-4.334c0-3.689 2.766-5.367 5.534-5.367 1.438 0 2.876.727 3.568 1.789h.083v-7.268h2.545v19.932zm-.055-9.083c0-2.095-1.687-3.242-3.431-3.242-1.55 0-3.154.978-3.154 3.186v4.25c0 1.732 1.08 3.017 3.126 3.017 1.632 0 3.458-1.2 3.458-3.353v-3.858m11.312 9.42c-2.324 0-4.564-.67-5.92-2.404l1.77-1.539a5.54 5.54 0 0 0 4.122 1.846c1.605 0 3.238-.67 3.238-2.125 0-1.397-.942-1.733-2.684-2.124l-1.854-.42c-1.964-.448-3.762-1.508-3.762-3.632 0-2.683 2.13-4.417 5.257-4.417 2.296 0 3.93.503 5.062 1.872l-1.715 1.483c-.968-.924-1.853-1.287-3.43-1.287-1.521 0-2.6.782-2.6 1.93 0 1.173 1.107 1.564 2.434 1.844l2.185.475c1.964.42 3.764 1.593 3.764 3.886-.002 3.102-3.073 4.611-5.867 4.611m17.677-.336v-8.86c0-2.264-1.108-3.356-2.768-3.356-1.908 0-3.484 1.565-3.484 4.053v8.162h-2.546v-19.93h2.546v7.883h.054c.97-1.537 2.38-2.405 4.178-2.405 3.044 0 4.564 2.152 4.564 4.836v9.616H514.2m6.413-16.995v-3.046h2.546v3.046zm0 16.995V490.57h2.546v14.144zm12.865.335c-1.549 0-3.015-.725-3.707-1.788h-.082v7.043h-2.544V490.57h2.488v1.957h.056c1.023-1.537 2.517-2.264 4.04-2.264 3.042 0 5.144 1.957 5.144 5.088v4.331c-.001 3.688-2.629 5.366-5.395 5.366m2.793-9.559c0-1.733-1.078-3.02-3.126-3.02-1.632 0-3.458 1.426-3.458 3.551v3.577c0 2.068 1.744 3.326 3.486 3.326 1.549 0 3.098-.98 3.098-3.187zm7.551 12.214h-1.466l.747-3.075h-.914v-3.578h2.821v3.522zM561 486.742c-.997 0-1.688.56-1.688 1.565v2.405h2.74v1.956h-2.74v12.047h-2.545v-12.047h-2.323v-1.956h2.323v-1.818c0-1.425.221-4.276 3.93-4.276.468 0 .967.056 1.409.084v2.095a15 15 0 0 0-1.106-.055m12.225 17.973c-.026-.336-.11-1.118-.11-1.455h-.082c-1.163 1.258-2.38 1.762-4.038 1.762-2.657 0-4.844-1.398-4.844-4.052 0-3.3 3.015-4.473 5.422-4.473h3.486v-1.65c0-1.817-1.107-2.626-2.905-2.626-1.494 0-2.906.531-2.906 1.9v.448h-2.325v-.308c0-2.99 2.656-4.024 5.312-4.024 2.85 0 5.34 1.062 5.34 4.276v7.24c0 .838.083 2.347.222 2.962zm-.164-6.318h-3.349c-1.604 0-3.015.504-3.015 2.376 0 1.51 1.245 2.181 2.766 2.181 2.38 0 3.598-1.313 3.598-3.215zm23.651 6.318v-8.86c0-2.153-.94-3.356-2.684-3.356-1.964 0-3.375 1.761-3.375 3.942v8.274h-2.546v-8.833c0-2.096-.858-3.381-2.683-3.381-1.578 0-3.376 1.425-3.376 3.856v8.358h-2.544V490.57h2.461v2.096h.057c.994-1.51 2.323-2.405 4.232-2.405 2.047 0 3.291 1.006 3.955 2.433 0 0 .11 0 .11-.028.997-1.454 2.407-2.405 4.428-2.405 2.766 0 4.509 1.9 4.509 4.64v9.812h-2.544m6.414-16.995v-3.046h2.543v3.046zm0 16.995V490.57h2.543v14.144zm9.847.251c-2.71 0-3.347-1.873-3.347-3.633v-16.547h2.544v16.491c0 .839.388 1.51 1.44 1.51.525 0 1.023-.056 1.548-.139.055-.028.11-.028.137-.028v1.956c-.745.223-1.63.39-2.322.39m10.236 2.042c-.858 2.403-2.49 3.214-4.398 3.214-.415 0-1.302-.084-1.8-.17v-2.18c.497.085 1.385.169 1.688.169 1.079 0 1.77-.476 2.13-1.426l.803-2.18-5.118-13.892h2.766l3.624 10.705h.056l3.513-10.705h2.6zm9.928.697h-1.466l.746-3.075h-.912v-3.578h2.822v3.522zm16.542-2.655c-2.323 0-4.565-.67-5.92-2.403l1.77-1.539a5.54 5.54 0 0 0 4.122 1.846c1.603 0 3.237-.67 3.237-2.125 0-1.397-.94-1.733-2.685-2.124l-1.854-.42c-1.964-.448-3.762-1.508-3.762-3.632 0-2.683 2.131-4.417 5.258-4.417 2.296 0 3.928.503 5.06 1.872l-1.713 1.483c-.97-.924-1.855-1.287-3.431-1.287-1.523 0-2.6.782-2.6 1.93 0 1.173 1.106 1.564 2.434 1.844l2.185.475c1.964.42 3.763 1.593 3.763 3.886.001 3.102-3.07 4.611-5.864 4.611m14.576 0c-3.457 0-6.335-1.844-6.335-5.757v-2.962c0-3.97 2.684-6.066 6.059-6.066 3.125 0 5.615 1.93 5.615 5.619v2.515h-9.045v.894c0 2.124 1.466 3.577 3.817 3.577 1.301 0 2.517-.838 3.265-1.873l1.964 1.006c-1.245 2.041-3.209 3.047-5.34 3.047m2.823-9.196c0-1.957-1.024-3.41-3.126-3.41-2.047 0-3.402 1.313-3.402 3.354v.7h6.528zm14.05 8.86-3.457-5.281-3.432 5.282h-2.876l4.925-7.352-4.566-6.792h2.96l3.098 4.752 3.1-4.752h2.82l-4.565 6.737 4.925 7.407zm14.164 0v-2.095h-.082c-.97 1.509-2.324 2.404-4.205 2.404-3.044 0-4.566-2.18-4.566-4.836v-9.615h2.545v8.833c0 2.264 1.108 3.381 2.766 3.381 1.936 0 3.459-1.563 3.459-4.024v-8.19h2.572v14.143zm14.548 0c-.026-.335-.11-1.117-.11-1.454h-.082c-1.163 1.258-2.38 1.762-4.038 1.762-2.657 0-4.844-1.398-4.844-4.052 0-3.3 3.015-4.473 5.422-4.473h3.486v-1.65c0-1.817-1.107-2.626-2.905-2.626-1.494 0-2.906.531-2.906 1.9v.448h-2.325v-.308c0-2.99 2.656-4.024 5.313-4.024 2.85 0 5.34 1.062 5.34 4.276v7.24c0 .838.082 2.347.22 2.962zm-.164-6.317h-3.349c-1.604 0-3.015.504-3.015 2.376 0 1.51 1.245 2.181 2.767 2.181 2.38 0 3.597-1.313 3.597-3.215zm9.762 6.57c-2.711 0-3.347-1.874-3.347-3.634v-16.547h2.544v16.491c0 .839.388 1.51 1.439 1.51.527 0 1.023-.056 1.549-.139.056-.028.11-.028.138-.028v1.956c-.746.223-1.63.39-2.323.39m11.59-17.247v-3.046h2.544v3.046zm0 16.995V490.57h2.544v14.144zm15.324 0v-8.86c0-2.264-1.106-3.356-2.765-3.356-1.91 0-3.487 1.565-3.487 4.053v8.162h-2.543V490.57h2.49v2.096h.053c.97-1.51 2.353-2.405 4.234-2.405 3.042 0 4.565 2.152 4.565 4.836v9.615zm10.872.223c-1.855 0-3.708-.754-3.708-3.297v-8.945h-2.296v-2.07h2.27v-4.61h2.543v4.61h3.818v2.041h-3.818v8.441c0 1.202.636 1.65 1.689 1.65.83 0 1.576-.167 2.24-.363v2.068c-.914.336-2.131.475-2.738.475m5.282-17.218v-3.046h2.543v3.046zm0 16.995V490.57h2.543v14.144zm23.734 0v-8.86c0-2.153-.94-3.356-2.684-3.356-1.964 0-3.375 1.761-3.375 3.942v8.274h-2.545v-8.833c0-2.096-.859-3.381-2.683-3.381-1.578 0-3.377 1.425-3.377 3.856v8.358h-2.544V490.57h2.462v2.096h.056c.995-1.51 2.323-2.405 4.233-2.405 2.046 0 3.29 1.006 3.955 2.433 0 0 .111 0 .111-.028.995-1.454 2.407-2.405 4.426-2.405 2.767 0 4.51 1.9 4.51 4.64v9.812h-2.545m14.631 0c-.026-.336-.11-1.118-.11-1.455h-.082c-1.163 1.258-2.38 1.762-4.038 1.762-2.657 0-4.844-1.398-4.844-4.052 0-3.3 3.015-4.473 5.422-4.473h3.486v-1.65c0-1.817-1.107-2.626-2.905-2.626-1.494 0-2.906.531-2.906 1.9v.448h-2.325v-.308c0-2.99 2.656-4.024 5.313-4.024 2.85 0 5.34 1.062 5.34 4.276v7.24c0 .838.082 2.347.22 2.962zm-.164-6.318h-3.349c-1.604 0-3.015.504-3.015 2.376 0 1.51 1.245 2.181 2.767 2.181 2.38 0 3.597-1.313 3.597-3.215zm11.808 6.653c-3.514 0-6.003-2.039-6.003-5.73v-3.074c0-3.745 2.518-5.982 5.947-5.982 3.32 0 5.644 1.93 5.644 4.948v.363h-2.462v-.363c0-1.426-1.079-2.767-3.153-2.767-2.075 0-3.348 1.285-3.348 3.633v3.27c0 2.096 1.106 3.549 3.375 3.549 2.075 0 3.126-1.341 3.126-2.739v-.335h2.462v.28c.001 3.047-2.267 4.947-5.588 4.947m13.885 1.958c-.857 2.403-2.488 3.214-4.398 3.214-.415 0-1.299-.084-1.798-.17v-2.18c.498.085 1.383.169 1.687.169 1.079 0 1.77-.476 2.13-1.426l.802-2.18-5.117-13.892h2.767l3.624 10.705h.055l3.515-10.705h2.6zm-447.201 69.18c-2.324 0-4.564-.67-5.92-2.403l1.77-1.539a5.54 5.54 0 0 0 4.122 1.846c1.604 0 3.238-.67 3.238-2.125 0-1.397-.942-1.733-2.685-2.124l-1.853-.42c-1.964-.448-3.762-1.508-3.762-3.632 0-2.683 2.13-4.417 5.257-4.417 2.296 0 3.93.503 5.062 1.872l-1.715 1.483c-.968-.924-1.853-1.287-3.43-1.287-1.521 0-2.6.782-2.6 1.93 0 1.173 1.106 1.564 2.434 1.844l2.185.475c1.964.42 3.763 1.593 3.763 3.886 0 3.102-3.071 4.611-5.866 4.611m14.577 0c-3.458 0-6.336-1.844-6.336-5.757v-2.962c0-3.97 2.684-6.066 6.06-6.066 3.125 0 5.615 1.93 5.615 5.619v2.515h-9.047v.894c0 2.124 1.466 3.577 3.819 3.577 1.3 0 2.517-.838 3.264-1.873l1.964 1.006c-1.244 2.041-3.21 3.047-5.339 3.047m2.823-9.196c0-1.957-1.024-3.41-3.126-3.41-2.047 0-3.404 1.313-3.404 3.354v.7h6.53zm11.174 9.196c-3.513 0-6.004-2.039-6.004-5.73v-3.074c0-3.745 2.517-5.982 5.947-5.982 3.32 0 5.644 1.93 5.644 4.948v.363h-2.462v-.363c0-1.426-1.079-2.767-3.153-2.767-2.075 0-3.348 1.285-3.348 3.633v3.27c0 2.096 1.106 3.549 3.376 3.549 2.074 0 3.125-1.342 3.125-2.739v-.335h2.462v.28c.001 3.047-2.268 4.947-5.587 4.947m17.37-.335v-2.096h-.082c-.969 1.509-2.324 2.404-4.205 2.404-3.043 0-4.565-2.18-4.565-4.836v-9.615h2.545v8.833c0 2.264 1.106 3.381 2.766 3.381 1.937 0 3.457-1.563 3.457-4.024v-8.19h2.573v14.143zm12.863-11.99c-.443 0-1.217.083-1.604.223-1.44.53-2.462 1.984-2.462 4.052v7.715h-2.545v-14.144h2.49v2.515h.055c1.05-1.732 2.766-2.739 4.62-2.739.415 0 .913.084 1.245.112v2.376c-.333-.056-1.66-.11-1.799-.11m4.424-5.005v-3.046h2.545v3.046zm0 16.995v-14.144h2.545v14.144zm10.983.223c-1.854 0-3.708-.754-3.708-3.297v-8.945h-2.296v-2.07h2.269v-4.61h2.544v4.61h3.818v2.041h-3.818v8.441c0 1.202.637 1.65 1.688 1.65.83 0 1.576-.167 2.24-.363v2.068c-.911.336-2.13.475-2.737.475m10.565 2.07c-.857 2.403-2.49 3.214-4.398 3.214a14 14 0 0 1-1.799-.17v-2.18c.498.085 1.384.168 1.687.168 1.08 0 1.77-.475 2.13-1.425l.802-2.18-5.118-13.892h2.767l3.624 10.705h.055l3.513-10.705h2.6zm20.275-1.958c-3.513 0-5.893-2.012-5.893-5.617v-3.3c0-3.744 2.627-5.87 5.865-5.87 3.485 0 5.893 2.208 5.893 5.815v3.13c0 3.746-2.655 5.842-5.865 5.842m3.265-9.112c0-2.068-1.024-3.493-3.265-3.493-2.075 0-3.292 1.285-3.292 3.577v3.355c0 2.068 1.023 3.52 3.264 3.52 2.075 0 3.293-1.286 3.293-3.577zm11.396-9.196c-.996 0-1.687.56-1.687 1.565v2.405h2.738v1.956h-2.738v12.047h-2.545v-12.047h-2.323v-1.956h2.323v-1.818c0-1.425.221-4.276 3.93-4.276.47 0 .967.056 1.41.084v2.095a16 16 0 0 0-1.108-.055m3.954 8.218v-3.662h2.823v3.662zm0 9.755v-3.663h2.823v3.663zm19.667.335c-1.576 0-3.042-.781-3.762-1.816h-.055v1.48h-2.462v-19.928h2.544v7.743h.028c.969-1.398 2.489-2.264 4.01-2.264 3.043 0 5.147 1.957 5.147 5.088v4.331c0 3.688-2.682 5.366-5.45 5.366m2.85-9.559c0-1.733-1.08-3.02-3.126-3.02-1.632 0-3.46 1.426-3.46 3.551v3.577c0 2.068 1.745 3.326 3.487 3.326 1.55 0 3.098-.98 3.098-3.187zm11.256 9.56c-3.513 0-5.893-2.013-5.893-5.618v-3.3c0-3.744 2.628-5.87 5.864-5.87 3.487 0 5.895 2.208 5.895 5.815v3.13c0 3.746-2.656 5.842-5.866 5.842m3.265-9.113c0-2.068-1.023-3.493-3.265-3.493-2.073 0-3.291 1.285-3.291 3.577v3.355c0 2.068 1.023 3.52 3.264 3.52 2.074 0 3.292-1.286 3.292-3.577zm14.604 8.777v-1.818h-.054c-.859 1.258-2.518 2.152-4.04 2.152-3.042 0-5.146-1.956-5.146-5.086v-4.334c0-3.689 2.766-5.367 5.534-5.367 1.438 0 2.875.727 3.568 1.789h.083v-7.268h2.543v19.932zm-.054-9.084c0-2.095-1.688-3.242-3.431-3.242-1.55 0-3.155.978-3.155 3.186v4.249c0 1.733 1.08 3.018 3.126 3.018 1.632 0 3.459-1.2 3.459-3.353v-3.858zm11.81 11.377c-.857 2.403-2.49 3.214-4.398 3.214-.415 0-1.3-.084-1.8-.17v-2.18c.499.085 1.385.168 1.69.168 1.077 0 1.77-.475 2.128-1.425l.803-2.18-5.117-13.892h2.766l3.624 10.705h.056l3.513-10.705h2.6zm9.93.697h-1.466l.747-3.075h-.914v-3.578h2.822v3.522zm17.453-2.655c-3.457 0-6.334-1.844-6.334-5.757v-2.962c0-3.97 2.683-6.066 6.059-6.066 3.126 0 5.615 1.93 5.615 5.619v2.515h-9.045v.894c0 2.124 1.466 3.577 3.817 3.577 1.3 0 2.517-.838 3.265-1.873l1.964 1.006c-1.244 2.041-3.208 3.047-5.34 3.047m2.823-9.196c0-1.957-1.024-3.41-3.126-3.41-2.047 0-3.402 1.313-3.402 3.354v.7h6.528zm23.014 8.86v-8.86c0-2.152-.94-3.355-2.683-3.355-1.964 0-3.376 1.761-3.376 3.942v8.274h-2.544v-8.833c0-2.096-.858-3.381-2.684-3.381-1.577 0-3.376 1.425-3.376 3.856v8.358h-2.545v-14.144h2.463v2.096h.054c.997-1.51 2.325-2.405 4.234-2.405 2.047 0 3.291 1.006 3.955 2.433 0 0 .11 0 .11-.028.997-1.454 2.407-2.405 4.428-2.405 2.766 0 4.51 1.9 4.51 4.64v9.812zm12.752.336c-1.55 0-3.015-.725-3.707-1.788h-.083v7.043h-2.544v-19.73h2.489v1.957h.055c1.023-1.537 2.517-2.264 4.04-2.264 3.042 0 5.145 1.957 5.145 5.088v4.331c-.002 3.688-2.63 5.366-5.395 5.366m2.792-9.559c0-1.733-1.077-3.02-3.126-3.02-1.632 0-3.457 1.426-3.457 3.551v3.577c0 2.068 1.744 3.326 3.485 3.326 1.549 0 3.098-.98 3.098-3.187zm9.294 9.475c-2.71 0-3.348-1.873-3.348-3.633v-16.547h2.546v16.491c0 .839.387 1.51 1.438 1.51a10 10 0 0 0 1.55-.139c.055-.028.11-.028.138-.028v1.956c-.746.223-1.632.39-2.324.39m10.235.084c-3.514 0-5.893-2.012-5.893-5.617v-3.3c0-3.744 2.629-5.87 5.865-5.87 3.484 0 5.893 2.208 5.893 5.815v3.13c0 3.746-2.657 5.842-5.865 5.842m3.264-9.112c0-2.068-1.022-3.493-3.266-3.493-2.074 0-3.291 1.285-3.291 3.577v3.355c0 2.068 1.022 3.52 3.265 3.52 2.075 0 3.292-1.286 3.292-3.577zm11.256 11.07c-.858 2.403-2.488 3.214-4.399 3.214-.414 0-1.299-.084-1.798-.17v-2.18c.498.085 1.384.168 1.687.168 1.08 0 1.77-.475 2.132-1.425l.802-2.18-5.119-13.892h2.768l3.624 10.705h.055l3.514-10.705h2.6zm25.56-2.293v-8.86c0-2.153-.94-3.356-2.683-3.356-1.964 0-3.376 1.761-3.376 3.942v8.274h-2.543v-8.833c0-2.096-.859-3.381-2.684-3.381-1.577 0-3.376 1.425-3.376 3.856v8.358h-2.545v-14.144h2.463v2.096h.054c.997-1.51 2.325-2.405 4.233-2.405 2.047 0 3.292 1.006 3.956 2.433 0 0 .11 0 .11-.028.996-1.454 2.407-2.405 4.428-2.405 2.766 0 4.51 1.9 4.51 4.64v9.812zm12.115.335c-3.458 0-6.336-1.844-6.336-5.757v-2.962c0-3.97 2.684-6.066 6.06-6.066 3.125 0 5.614 1.93 5.614 5.619v2.515h-9.045v.894c0 2.124 1.466 3.577 3.817 3.577 1.302 0 2.518-.838 3.266-1.873l1.964 1.006c-1.245 2.041-3.21 3.047-5.34 3.047m2.821-9.196c0-1.957-1.023-3.41-3.126-3.41-2.046 0-3.402 1.313-3.402 3.354v.7h6.528zm14.606 8.86v-8.86c0-2.263-1.106-3.355-2.766-3.355-1.908 0-3.485 1.565-3.485 4.053v8.162h-2.545v-14.144h2.49v2.096h.055c.97-1.51 2.351-2.405 4.232-2.405 3.044 0 4.565 2.152 4.565 4.836v9.615h-2.546zm10.87.224c-1.855 0-3.708-.754-3.708-3.297v-8.945h-2.296v-2.07h2.27v-4.61h2.544v4.61h3.818v2.041h-3.818v8.441c0 1.202.637 1.65 1.689 1.65.83 0 1.577-.167 2.24-.363v2.068c-.913.336-2.13.475-2.74.475m6.859 2.767h-1.466l.746-3.075h-.914v-3.578h2.823v3.522zm18.283-14.98c-.443 0-1.217.083-1.604.223-1.44.53-2.462 1.984-2.462 4.052v7.715h-2.545v-14.144h2.49v2.515h.055c1.051-1.732 2.766-2.739 4.62-2.739.416 0 .915.084 1.246.112v2.376c-.332-.056-1.66-.11-1.8-.11m10.124 12.325c-3.457 0-6.335-1.844-6.335-5.757v-2.962c0-3.97 2.684-6.066 6.059-6.066 3.125 0 5.615 1.93 5.615 5.619v2.515h-9.045v.894c0 2.124 1.466 3.577 3.817 3.577 1.301 0 2.517-.838 3.265-1.873l1.964 1.006c-1.245 2.041-3.21 3.047-5.34 3.047m2.822-9.196c0-1.957-1.024-3.41-3.126-3.41-2.047 0-3.402 1.313-3.402 3.354v.7h6.528zm10.594 9.196c-2.324 0-4.565-.67-5.92-2.403l1.77-1.539a5.54 5.54 0 0 0 4.122 1.846c1.603 0 3.237-.67 3.237-2.125 0-1.397-.94-1.733-2.685-2.124l-1.854-.42c-1.964-.448-3.762-1.508-3.762-3.632 0-2.683 2.131-4.417 5.258-4.417 2.296 0 3.928.503 5.06 1.872l-1.713 1.483c-.97-.924-1.855-1.287-3.431-1.287-1.523 0-2.6.782-2.6 1.93 0 1.173 1.106 1.564 2.434 1.844l2.185.475c1.964.42 3.763 1.593 3.763 3.886.001 3.102-3.069 4.611-5.864 4.611m14.162 0c-3.514 0-5.893-2.012-5.893-5.617v-3.3c0-3.744 2.63-5.87 5.866-5.87 3.484 0 5.893 2.208 5.893 5.815v3.13c0 3.746-2.657 5.842-5.866 5.842m3.264-9.112c0-2.068-1.022-3.493-3.265-3.493-2.074 0-3.292 1.285-3.292 3.577v3.355c0 2.068 1.023 3.52 3.266 3.52 2.074 0 3.291-1.286 3.291-3.577zm14.744 8.777v-2.096h-.083c-.968 1.509-2.324 2.404-4.205 2.404-3.042 0-4.565-2.18-4.565-4.836v-9.615h2.545v8.833c0 2.264 1.106 3.381 2.766 3.381 1.937 0 3.457-1.563 3.457-4.024v-8.19h2.574v14.143zm12.86-11.99c-.443 0-1.216.083-1.604.223-1.44.53-2.461 1.984-2.461 4.052v7.715h-2.545v-14.144h2.49v2.515h.055c1.05-1.732 2.766-2.739 4.62-2.739.415 0 .914.084 1.245.112v2.376c-.332-.056-1.66-.11-1.8-.11m9.793 12.325c-3.514 0-6.004-2.039-6.004-5.73v-3.074c0-3.745 2.518-5.982 5.947-5.982 3.32 0 5.644 1.93 5.644 4.948v.363h-2.462v-.363c0-1.426-1.078-2.767-3.153-2.767-2.074 0-3.348 1.285-3.348 3.633v3.27c0 2.096 1.106 3.549 3.376 3.549 2.074 0 3.125-1.342 3.125-2.739v-.335h2.462v.28c.002 3.047-2.267 4.947-5.587 4.947m14.3 0c-3.458 0-6.335-1.844-6.335-5.757v-2.962c0-3.97 2.683-6.066 6.059-6.066 3.126 0 5.615 1.93 5.615 5.619v2.515h-9.045v.894c0 2.124 1.466 3.577 3.817 3.577 1.3 0 2.517-.838 3.265-1.873l1.964 1.006c-1.244 2.041-3.208 3.047-5.34 3.047m2.823-9.196c0-1.957-1.023-3.41-3.126-3.41-2.046 0-3.402 1.313-3.402 3.354v.7h6.528zm10.592 9.196c-2.324 0-4.564-.67-5.92-2.403l1.77-1.539a5.54 5.54 0 0 0 4.122 1.846c1.604 0 3.236-.67 3.236-2.125 0-1.397-.94-1.733-2.684-2.124l-1.853-.42c-1.964-.448-3.762-1.508-3.762-3.632 0-2.683 2.13-4.417 5.257-4.417 2.296 0 3.929.503 5.062 1.872l-1.715 1.483c-.968-.924-1.855-1.287-3.431-1.287-1.522 0-2.6.782-2.6 1.93 0 1.173 1.107 1.564 2.435 1.844l2.185.475c1.964.42 3.763 1.593 3.763 3.886.001 3.102-3.07 4.611-5.865 4.611m10.457 2.655h-1.466l.747-3.075h-.914v-3.578h2.821v3.522zM421.924 607.61v-8.86c0-2.153-.94-3.356-2.684-3.356-1.963 0-3.374 1.761-3.374 3.942v8.274h-2.545v-8.833c0-2.096-.857-3.381-2.683-3.381-1.577 0-3.376 1.425-3.376 3.856v8.358h-2.545v-14.144h2.462v2.096h.055c.996-1.51 2.324-2.405 4.234-2.405 2.047 0 3.291 1.006 3.955 2.433 0 0 .11 0 .11-.028.997-1.454 2.407-2.405 4.428-2.405 2.766 0 4.509 1.9 4.509 4.64v9.812zm11.698.335c-3.513 0-5.893-2.012-5.893-5.617v-3.3c0-3.744 2.627-5.87 5.865-5.87 3.485 0 5.893 2.208 5.893 5.815v3.13c0 3.746-2.655 5.842-5.865 5.842m3.265-9.112c0-2.068-1.024-3.493-3.265-3.493-2.075 0-3.292 1.285-3.292 3.577v3.355c0 2.068 1.023 3.52 3.264 3.52 2.075 0 3.293-1.286 3.293-3.577zm12.501-3.214c-.442 0-1.217.084-1.604.224-1.44.53-2.462 1.984-2.462 4.052v7.715h-2.545v-14.144h2.49v2.515h.055c1.051-1.732 2.766-2.739 4.62-2.739.416 0 .914.084 1.246.112v2.376c-.332-.056-1.66-.11-1.8-.11m12.643 11.99c-.028-.335-.11-1.117-.11-1.454h-.084c-1.162 1.258-2.38 1.762-4.04 1.762-2.655 0-4.84-1.398-4.84-4.052 0-3.3 3.015-4.473 5.421-4.473h3.486v-1.65c0-1.817-1.107-2.626-2.906-2.626-1.494 0-2.905.531-2.905 1.9v.448h-2.324v-.308c0-2.99 2.655-4.024 5.312-4.024 2.85 0 5.34 1.062 5.34 4.276v7.24c0 .838.083 2.347.221 2.962zm-.166-6.316h-3.348c-1.605 0-3.015.503-3.015 2.375 0 1.51 1.244 2.181 2.767 2.181 2.379 0 3.596-1.313 3.596-3.215zm9.763 6.568c-2.71 0-3.348-1.873-3.348-3.633v-16.547h2.544v16.491c0 .839.388 1.51 1.439 1.51.525 0 1.023-.056 1.549-.139.055-.028.11-.028.138-.028v1.956c-.745.223-1.63.39-2.322.39m4.95-17.246v-3.046h2.545v3.046zm0 16.995v-14.144h2.545v14.144zm10.983.223c-1.855 0-3.708-.754-3.708-3.297v-8.945h-2.296v-2.069h2.268v-4.611h2.545v4.611h3.818v2.04h-3.818v8.441c0 1.202.636 1.65 1.687 1.65.83 0 1.577-.167 2.24-.363v2.068c-.91.336-2.128.475-2.736.475m10.566 2.07c-.857 2.403-2.49 3.214-4.4 3.214-.414 0-1.3-.084-1.797-.17v-2.18c.498.085 1.384.169 1.687.169 1.079 0 1.77-.476 2.13-1.426l.802-2.18-5.118-13.892h2.767l3.624 10.705h.055l3.513-10.705h2.6zm9.93.697h-1.467l.747-3.075h-.913v-3.578h2.823v3.522zm16.21-2.767c-1.855 0-3.708-.754-3.708-3.297v-8.945h-2.296v-2.069h2.27v-4.611h2.543v4.611h3.818v2.04h-3.818v8.441c0 1.202.636 1.65 1.689 1.65.83 0 1.576-.167 2.24-.363v2.068c-.914.336-2.131.475-2.738.475m14.078-.223v-8.86c0-2.264-1.105-3.356-2.765-3.356-1.91 0-3.486 1.565-3.486 4.053v8.162h-2.544v-19.93h2.544v7.883h.056c.968-1.537 2.38-2.405 4.177-2.405 3.043 0 4.565 2.152 4.565 4.836v9.616h-2.547m12.115.335c-3.457 0-6.334-1.844-6.334-5.757v-2.962c0-3.97 2.683-6.066 6.058-6.066 3.125 0 5.616 1.93 5.616 5.619v2.515h-9.046v.894c0 2.124 1.466 3.577 3.818 3.577 1.3 0 2.517-.838 3.264-1.873l1.964 1.006c-1.246 2.041-3.21 3.047-5.34 3.047m2.823-9.196c0-1.957-1.023-3.41-3.126-3.41-2.048 0-3.403 1.313-3.403 3.354v.7h6.53zm17.868-9.112c-.997 0-1.689.56-1.689 1.565v2.405h2.74v1.956h-2.74v12.047h-2.545v-12.047h-2.323v-1.956h2.323v-1.818c0-1.425.222-4.276 3.93-4.276.469 0 .968.056 1.409.084v2.095c-.36-.027-.747-.055-1.105-.055m12.225 17.973c-.028-.336-.11-1.118-.11-1.455h-.083c-1.163 1.258-2.38 1.762-4.04 1.762-2.656 0-4.841-1.398-4.841-4.052 0-3.3 3.013-4.473 5.421-4.473h3.485v-1.65c0-1.817-1.107-2.626-2.905-2.626-1.494 0-2.906.531-2.906 1.9v.448h-2.323v-.308c0-2.99 2.654-4.024 5.312-4.024 2.849 0 5.338 1.062 5.338 4.276v7.24c0 .838.083 2.347.222 2.962zm-.166-6.317h-3.347c-1.606 0-3.015.503-3.015 2.375 0 1.51 1.244 2.181 2.766 2.181 2.379 0 3.596-1.313 3.596-3.215zm23.651 6.317v-8.86c0-2.153-.94-3.356-2.684-3.356-1.964 0-3.375 1.761-3.375 3.942v8.274h-2.545v-8.833c0-2.096-.858-3.381-2.683-3.381-1.578 0-3.377 1.425-3.377 3.856v8.358h-2.544v-14.144h2.462v2.096h.056c.995-1.51 2.323-2.405 4.233-2.405 2.046 0 3.29 1.006 3.956 2.433 0 0 .11 0 .11-.028.995-1.454 2.407-2.405 4.426-2.405 2.767 0 4.51 1.9 4.51 4.64v9.812zm6.415-16.995v-3.046h2.545v3.046zm0 16.995v-14.144h2.545v14.144zm9.847.251c-2.71 0-3.347-1.873-3.347-3.633v-16.547h2.545v16.491c0 .839.387 1.51 1.438 1.51a10 10 0 0 0 1.55-.139c.056-.028.11-.028.138-.028v1.956c-.747.223-1.632.39-2.324.39m10.235 2.042c-.858 2.403-2.49 3.214-4.398 3.214-.415 0-1.3-.084-1.8-.17v-2.18c.498.085 1.385.169 1.69.169 1.077 0 1.77-.476 2.128-1.426l.803-2.18-5.117-13.892h2.766l3.624 10.705h.056l3.513-10.705h2.6zm9.93.697h-1.466l.747-3.075h-.913v-3.578h2.822v3.522zm20.552-2.99v-8.86c0-2.264-1.107-3.356-2.767-3.356-1.909 0-3.484 1.565-3.484 4.053v8.162h-2.546v-19.93h2.546v7.883h.054c.97-1.537 2.38-2.405 4.178-2.405 3.044 0 4.564 2.152 4.564 4.836v9.616zm12.114.335c-3.457 0-6.335-1.844-6.335-5.757v-2.962c0-3.97 2.684-6.066 6.059-6.066 3.126 0 5.615 1.93 5.615 5.619v2.515h-9.045v.894c0 2.124 1.466 3.577 3.817 3.577 1.301 0 2.517-.838 3.265-1.873l1.964 1.006c-1.244 2.041-3.21 3.047-5.34 3.047m2.822-9.196c0-1.957-1.024-3.41-3.126-3.41-2.047 0-3.402 1.313-3.402 3.354v.7h6.528zm14.025 8.86c-.026-.335-.11-1.117-.11-1.454h-.083c-1.162 1.258-2.38 1.762-4.04 1.762-2.654 0-4.84-1.398-4.84-4.052 0-3.3 3.014-4.473 5.42-4.473h3.486v-1.65c0-1.817-1.106-2.626-2.906-2.626-1.493 0-2.904.531-2.904 1.9v.448h-2.326v-.308c0-2.99 2.657-4.024 5.312-4.024 2.852 0 5.34 1.062 5.34 4.276v7.24c0 .838.083 2.347.222 2.962zm-.166-6.316h-3.348c-1.603 0-3.015.503-3.015 2.375 0 1.51 1.245 2.181 2.767 2.181 2.38 0 3.596-1.313 3.596-3.215zm9.762 6.568c-2.71 0-3.347-1.873-3.347-3.633v-16.547h2.545v16.491c0 .839.387 1.51 1.438 1.51a10 10 0 0 0 1.55-.139c.056-.028.11-.028.138-.028v1.956c-.746.223-1.631.39-2.324.39m9.406-.028c-1.854 0-3.708-.754-3.708-3.297v-8.945H705.8v-2.069h2.27v-4.611h2.545v4.611h3.817v2.04h-3.817V604c0 1.202.636 1.65 1.688 1.65.83 0 1.577-.167 2.24-.363v2.068c-.913.336-2.13.475-2.739.475m14.078-.223v-8.86c0-2.264-1.105-3.356-2.765-3.356-1.91 0-3.486 1.565-3.486 4.053v8.162h-2.544v-19.93h2.544v7.883h.056c.969-1.537 2.38-2.405 4.177-2.405 3.043 0 4.566 2.152 4.566 4.836v9.616zm7.994 2.99h-1.466l.747-3.075h-.913v-3.578h2.823v3.522zm18.09-2.655c-1.548 0-3.014-.725-3.707-1.788h-.082v7.043h-2.545v-19.733h2.49v1.957h.055c1.023-1.537 2.518-2.264 4.039-2.264 3.043 0 5.147 1.957 5.147 5.088v4.331c-.001 3.688-2.63 5.366-5.396 5.366m2.796-9.559c0-1.733-1.08-3.02-3.126-3.02-1.633 0-3.459 1.426-3.459 3.551v3.577c0 2.068 1.743 3.326 3.485 3.326 1.55 0 3.1-.98 3.1-3.187zm12.501-2.767c-.444 0-1.218.084-1.604.224-1.44.53-2.462 1.984-2.462 4.052v7.715h-2.546v-14.144h2.49v2.515h.056c1.051-1.732 2.765-2.739 4.62-2.739.414 0 .913.084 1.244.112v2.376c-.332-.056-1.66-.11-1.798-.11m9.708 12.326c-3.512 0-5.892-2.012-5.892-5.617v-3.3c0-3.744 2.628-5.87 5.864-5.87 3.485 0 5.894 2.208 5.894 5.815v3.13c0 3.746-2.656 5.842-5.866 5.842m3.266-9.112c0-2.068-1.023-3.493-3.266-3.493-2.073 0-3.29 1.285-3.29 3.577v3.355c0 2.068 1.022 3.52 3.263 3.52 2.075 0 3.293-1.286 3.293-3.577zm12.308 9.112c-1.549 0-3.015-.725-3.708-1.788h-.081v7.043h-2.545v-19.733h2.49v1.957h.055c1.023-1.537 2.518-2.264 4.038-2.264 3.044 0 5.148 1.957 5.148 5.088v4.331c-.002 3.688-2.63 5.366-5.397 5.366m2.794-9.559c0-1.733-1.079-3.02-3.126-3.02-1.633 0-3.459 1.426-3.459 3.551v3.577c0 2.068 1.743 3.326 3.486 3.326 1.549 0 3.099-.98 3.099-3.187zm11.673 9.56c-3.458 0-6.336-1.845-6.336-5.758v-2.962c0-3.97 2.685-6.066 6.058-6.066 3.126 0 5.616 1.93 5.616 5.619v2.515h-9.046v.894c0 2.124 1.466 3.577 3.819 3.577 1.3 0 2.517-.838 3.264-1.873l1.963 1.006c-1.246 2.041-3.21 3.047-5.338 3.047m2.821-9.197c0-1.957-1.023-3.41-3.125-3.41-2.049 0-3.404 1.313-3.404 3.354v.7h6.53zm12.336-3.13c-.444 0-1.217.084-1.604.224-1.44.53-2.462 1.984-2.462 4.052v7.715h-2.545v-14.144h2.49v2.515h.055c1.05-1.732 2.766-2.739 4.62-2.739.415 0 .914.084 1.245.112v2.376c-.332-.056-1.66-.11-1.8-.11m8.879 12.214c-1.854 0-3.707-.754-3.707-3.297v-8.945h-2.295v-2.069h2.268v-4.611h2.546v4.611h3.816v2.04h-3.817V604c0 1.202.636 1.65 1.687 1.65.83 0 1.577-.167 2.24-.363v2.068c-.911.336-2.13.475-2.738.475m10.567 2.07c-.858 2.403-2.49 3.214-4.399 3.214-.414 0-1.3-.084-1.8-.17v-2.18c.498.085 1.386.169 1.689.169 1.078 0 1.77-.476 2.13-1.426l.803-2.18-5.119-13.892h2.766l3.625 10.705h.056l3.513-10.705h2.6zm-551.147 69.18c-1.576 0-3.042-.781-3.763-1.816h-.055v1.48h-2.462V658.82h2.545v7.743h.028c.968-1.398 2.489-2.264 4.01-2.264 3.043 0 5.147 1.957 5.147 5.088v4.331c0 3.688-2.684 5.366-5.45 5.366m2.85-9.559c0-1.733-1.08-3.02-3.126-3.02-1.632 0-3.458 1.426-3.458 3.551v3.577c0 2.068 1.743 3.326 3.485 3.326 1.55 0 3.098-.98 3.098-3.187zm12.5-2.767c-.442 0-1.216.084-1.603.224-1.44.53-2.462 1.984-2.462 4.052v7.715h-2.545v-14.144h2.49v2.515h.055c1.05-1.732 2.766-2.739 4.62-2.739.414 0 .913.084 1.244.112v2.376c-.33-.056-1.659-.11-1.798-.11m10.125 12.326c-3.458 0-6.336-1.844-6.336-5.757v-2.962c0-3.97 2.683-6.066 6.06-6.066 3.125 0 5.614 1.93 5.614 5.619v2.515h-9.046v.894c0 2.124 1.466 3.577 3.818 3.577 1.3 0 2.518-.838 3.264-1.873l1.964 1.006c-1.243 2.041-3.208 3.047-5.338 3.047m2.823-9.196c0-1.957-1.024-3.41-3.126-3.41-2.047 0-3.404 1.313-3.404 3.354v.7h6.53zm14.024 8.86c-.028-.335-.111-1.117-.111-1.454h-.083c-1.162 1.258-2.38 1.762-4.04 1.762-2.655 0-4.84-1.398-4.84-4.052 0-3.3 3.015-4.473 5.421-4.473h3.485v-1.65c0-1.817-1.106-2.626-2.905-2.626-1.494 0-2.905.531-2.905 1.9v.448h-2.324v-.308c0-2.99 2.655-4.024 5.312-4.024 2.85 0 5.34 1.062 5.34 4.276v7.24c0 .838.083 2.347.22 2.962zm-.166-6.317h-3.349c-1.604 0-3.015.504-3.015 2.376 0 1.51 1.245 2.181 2.768 2.181 2.379 0 3.596-1.313 3.596-3.215zm10.897 6.541c-1.855 0-3.708-.754-3.708-3.297v-8.945h-2.296v-2.07h2.268v-4.61h2.545v4.61h3.819v2.041h-3.819v8.441c0 1.202.636 1.65 1.687 1.65.83 0 1.577-.167 2.241-.363v2.068c-.912.336-2.129.475-2.737.475m14.08-.223v-8.86c0-2.264-1.107-3.356-2.767-3.356-1.908 0-3.485 1.565-3.485 4.053v8.162h-2.545v-19.93h2.545v7.883h.055c.97-1.537 2.38-2.405 4.178-2.405 3.043 0 4.564 2.152 4.564 4.836v9.616H357.6m6.415-16.995v-3.046h2.545v3.046zm0 16.995v-14.144h2.545v14.144zm15.325 0v-8.86c0-2.264-1.107-3.356-2.767-3.356-1.908 0-3.485 1.565-3.485 4.053v8.162h-2.545v-14.144h2.49v2.096h.055c.968-1.51 2.353-2.405 4.234-2.405 3.042 0 4.564 2.152 4.564 4.836v9.615h-2.546zm11.34 5.645c-2.157 0-4.426-.866-5.45-2.878l2.408-1.09c.802 1.145 1.908 1.872 3.32 1.872 2.184 0 3.403-1.62 3.403-3.437v-2.376h-.028c-.885 1.314-2.296 2.124-3.955 2.124-3.21 0-5.174-1.956-5.174-5.086v-3.746c0-3.69 2.572-5.478 5.395-5.478 1.467 0 3.043.782 3.735 1.9h.056v-1.593h2.461v13.947c0 3.354-2.104 5.841-6.17 5.841m3.68-14.73c0-2.067-1.66-3.213-3.404-3.213-1.55 0-3.153.98-3.153 3.187v3.83c0 1.733 1.078 3.046 3.125 3.046 1.632 0 3.431-1.23 3.431-3.355zm7.965 12.075h-1.466l.746-3.075h-.912v-3.578h2.822v3.522zm17.177-20.963c-.996 0-1.687.56-1.687 1.565v2.405h2.738v1.956h-2.738v12.047h-2.545v-12.047h-2.324v-1.956h2.324v-1.818c0-1.425.221-4.276 3.929-4.276.47 0 .968.056 1.41.084v2.095a15 15 0 0 0-1.107-.055m9.294 18.308c-3.513 0-5.893-2.012-5.893-5.617v-3.3c0-3.744 2.628-5.87 5.865-5.87 3.486 0 5.893 2.208 5.893 5.815v3.13c0 3.746-2.655 5.842-5.865 5.842m3.265-9.112c0-2.068-1.023-3.493-3.265-3.493-2.074 0-3.292 1.285-3.292 3.577v3.355c0 2.068 1.024 3.52 3.264 3.52 2.075 0 3.293-1.286 3.293-3.577zm11.257 9.112c-3.513 0-5.893-2.012-5.893-5.617v-3.3c0-3.744 2.628-5.87 5.865-5.87 3.486 0 5.894 2.208 5.894 5.815v3.13c0 3.746-2.656 5.842-5.866 5.842m3.264-9.112c0-2.068-1.023-3.493-3.265-3.493-2.075 0-3.292 1.285-3.292 3.577v3.355c0 2.068 1.024 3.52 3.264 3.52 2.075 0 3.293-1.286 3.293-3.577zm14.605 8.777v-1.818h-.055c-.858 1.258-2.517 2.152-4.039 2.152-3.042 0-5.146-1.956-5.146-5.086v-4.334c0-3.689 2.766-5.367 5.534-5.367 1.438 0 2.876.727 3.568 1.789h.083v-7.268h2.545v19.932zm-.055-9.084c0-2.095-1.688-3.242-3.431-3.242-1.55 0-3.154.978-3.154 3.186v4.25c0 1.732 1.079 3.017 3.126 3.017 1.632 0 3.458-1.2 3.458-3.353zm8.103 12.074h-1.466l.747-3.075h-.913v-3.578h2.823v3.522zm26.418-2.962h-2.573l-3.18-10.93h-.084l-3.208 10.93h-2.545l-4.454-14.172h2.683l3.07 10.845h.084l3.208-10.845h2.49l3.182 10.845h.056l3.153-10.845h2.545zm15.24-.028c-.027-.336-.111-1.118-.111-1.455h-.082c-1.163 1.258-2.38 1.762-4.038 1.762-2.656 0-4.842-1.398-4.842-4.052 0-3.3 3.015-4.473 5.421-4.473h3.487v-1.65c0-1.817-1.108-2.626-2.906-2.626-1.493 0-2.905.531-2.905 1.9v.448h-2.325v-.308c0-2.99 2.655-4.024 5.312-4.024 2.85 0 5.34 1.062 5.34 4.276v7.24c0 .838.083 2.347.221 2.962zm-.165-6.318h-3.348c-1.605 0-3.015.504-3.015 2.376 0 1.51 1.244 2.181 2.766 2.181 2.38 0 3.597-1.313 3.597-3.215zm10.897 6.541c-1.854 0-3.706-.754-3.706-3.297v-8.945h-2.296v-2.07h2.268v-4.61h2.545v4.61h3.818v2.041h-3.818v8.441c0 1.202.636 1.65 1.687 1.65.83 0 1.577-.167 2.242-.363v2.068c-.914.336-2.133.475-2.74.475m10.98.112c-3.457 0-6.335-1.844-6.335-5.757v-2.962c0-3.97 2.684-6.066 6.059-6.066 3.125 0 5.615 1.93 5.615 5.619v2.515H528.9v.894c0 2.124 1.466 3.577 3.817 3.577 1.301 0 2.517-.838 3.265-1.873l1.964 1.006c-1.245 2.041-3.209 3.047-5.34 3.047m2.823-9.196c0-1.957-1.024-3.41-3.126-3.41-2.047 0-3.402 1.313-3.402 3.354v.7h6.528zm12.335-3.13c-.443 0-1.217.084-1.604.224-1.44.53-2.462 1.984-2.462 4.052v7.715h-2.545v-14.144h2.49v2.515h.055c1.051-1.732 2.766-2.739 4.62-2.739.416 0 .915.084 1.246.112v2.376c-.332-.056-1.661-.11-1.8-.11m6.003 14.981H552.3l.747-3.075h-.913v-3.578h2.821v3.522zm16.54-2.655c-2.324 0-4.564-.67-5.92-2.403l1.77-1.539a5.54 5.54 0 0 0 4.122 1.846c1.605 0 3.237-.67 3.237-2.125 0-1.397-.94-1.733-2.685-2.124l-1.853-.42c-1.964-.448-3.762-1.508-3.762-3.632 0-2.683 2.13-4.417 5.257-4.417 2.296 0 3.929.503 5.062 1.872l-1.715 1.483c-.968-.924-1.855-1.287-3.431-1.287-1.522 0-2.6.782-2.6 1.93 0 1.173 1.107 1.564 2.435 1.844l2.185.475c1.964.42 3.763 1.593 3.763 3.886.002 3.102-3.071 4.611-5.865 4.611m14.578 0c-3.457 0-6.334-1.844-6.334-5.757v-2.962c0-3.97 2.683-6.066 6.058-6.066 3.126 0 5.616 1.93 5.616 5.619v2.515h-9.046v.894c0 2.124 1.466 3.577 3.818 3.577 1.3 0 2.518-.838 3.264-1.873l1.964 1.006c-1.246 2.041-3.21 3.047-5.34 3.047m2.823-9.196c0-1.957-1.023-3.41-3.126-3.41-2.048 0-3.403 1.313-3.403 3.354v.7h6.53zm14.05 8.86-3.46-5.281-3.43 5.282h-2.876l4.923-7.352-4.565-6.792h2.961l3.098 4.752 3.098-4.752h2.822l-4.564 6.737 4.924 7.407zm6.97 2.991h-1.466l.747-3.075h-.914v-3.578h2.821v3.522zm16.541-2.655c-2.325 0-4.564-.67-5.92-2.403l1.771-1.539a5.54 5.54 0 0 0 4.12 1.846c1.606 0 3.238-.67 3.238-2.125 0-1.397-.942-1.733-2.683-2.124l-1.855-.42c-1.964-.448-3.762-1.508-3.762-3.632 0-2.683 2.129-4.417 5.256-4.417 2.296 0 3.93.503 5.063 1.872l-1.716 1.483c-.968-.924-1.853-1.287-3.431-1.287-1.52 0-2.6.782-2.6 1.93 0 1.173 1.107 1.564 2.436 1.844l2.185.475c1.964.42 3.762 1.593 3.762 3.886.002 3.102-3.07 4.611-5.864 4.611m12.199-.084c-2.711 0-3.348-1.873-3.348-3.633V658.82h2.544v16.491c0 .839.389 1.51 1.44 1.51.525 0 1.023-.056 1.549-.139.054-.028.11-.028.137-.028v1.956c-.746.223-1.63.39-2.322.39m10.648.084c-3.458 0-6.334-1.844-6.334-5.757v-2.962c0-3.97 2.683-6.066 6.059-6.066 3.125 0 5.615 1.93 5.615 5.619v2.515h-9.045v.894c0 2.124 1.466 3.577 3.817 3.577 1.3 0 2.517-.838 3.265-1.873l1.964 1.006c-1.246 2.041-3.21 3.047-5.341 3.047m2.823-9.196c0-1.957-1.024-3.41-3.126-3.41-2.047 0-3.402 1.313-3.402 3.354v.7h6.528zm11.505 9.196c-3.457 0-6.335-1.844-6.335-5.757v-2.962c0-3.97 2.684-6.066 6.059-6.066 3.125 0 5.615 1.93 5.615 5.619v2.515h-9.045v.894c0 2.124 1.466 3.577 3.817 3.577 1.301 0 2.517-.838 3.265-1.873l1.964 1.006c-1.245 2.041-3.21 3.047-5.34 3.047m2.822-9.196c0-1.957-1.024-3.41-3.126-3.41-2.047 0-3.402 1.313-3.402 3.354v.7h6.528zm12.143 9.196c-1.55 0-3.015-.725-3.708-1.788h-.083v7.043h-2.543v-19.733h2.49v1.957h.053c1.024-1.537 2.519-2.264 4.04-2.264 3.043 0 5.146 1.957 5.146 5.088v4.331c-.001 3.688-2.629 5.366-5.395 5.366m2.794-9.559c0-1.733-1.08-3.02-3.126-3.02-1.632 0-3.459 1.426-3.459 3.551v3.577c0 2.068 1.744 3.326 3.487 3.326 1.549 0 3.098-.98 3.098-3.187zm7.55 12.214h-1.466l.747-3.075h-.913v-3.578h2.823v3.522zm20.553-2.99v-8.86c0-2.264-1.106-3.356-2.766-3.356-1.908 0-3.485 1.565-3.485 4.053v8.162h-2.545v-19.93h2.545v7.883h.055c.97-1.537 2.38-2.405 4.177-2.405 3.044 0 4.565 2.152 4.565 4.836v9.616zm11.7.335c-3.515 0-5.895-2.012-5.895-5.617v-3.3c0-3.744 2.63-5.87 5.866-5.87 3.485 0 5.893 2.208 5.893 5.815v3.13c0 3.746-2.654 5.842-5.864 5.842m3.264-9.112c0-2.068-1.024-3.493-3.264-3.493-2.075 0-3.293 1.285-3.293 3.577v3.355c0 2.068 1.023 3.52 3.265 3.52 2.074 0 3.292-1.286 3.292-3.577zm23.18 8.777v-8.86c0-2.153-.94-3.356-2.684-3.356-1.964 0-3.374 1.761-3.374 3.942v8.274h-2.546v-8.833c0-2.096-.858-3.381-2.683-3.381-1.578 0-3.376 1.425-3.376 3.856v8.358h-2.544v-14.144h2.46v2.096h.057c.995-1.51 2.324-2.405 4.232-2.405 2.047 0 3.292 1.006 3.956 2.433 0 0 .11 0 .11-.028.996-1.454 2.407-2.405 4.428-2.405 2.766 0 4.508 1.9 4.508 4.64v9.812zm12.114.335c-3.458 0-6.335-1.844-6.335-5.757v-2.962c0-3.97 2.683-6.066 6.058-6.066 3.126 0 5.617 1.93 5.617 5.619v2.515h-9.047v.894c0 2.124 1.466 3.577 3.819 3.577 1.298 0 2.517-.838 3.264-1.873l1.964 1.006c-1.245 2.041-3.21 3.047-5.34 3.047m2.822-9.196c0-1.957-1.023-3.41-3.125-3.41-2.048 0-3.404 1.313-3.404 3.354v.7h6.53zm11.091 9.196c-3.511 0-5.892-2.012-5.892-5.617v-3.3c0-3.744 2.628-5.87 5.865-5.87 3.485 0 5.894 2.208 5.894 5.815v3.13c0 3.746-2.658 5.842-5.867 5.842m3.265-9.112c0-2.068-1.023-3.493-3.266-3.493-2.073 0-3.29 1.285-3.29 3.577v3.355c0 2.068 1.022 3.52 3.264 3.52 2.074 0 3.292-1.286 3.292-3.577zm10.76 9.112c-2.324 0-4.566-.67-5.921-2.403l1.77-1.539a5.54 5.54 0 0 0 4.123 1.846c1.603 0 3.236-.67 3.236-2.125 0-1.397-.94-1.733-2.684-2.124l-1.855-.42c-1.964-.448-3.762-1.508-3.762-3.632 0-2.683 2.131-4.417 5.258-4.417 2.296 0 3.928.503 5.061 1.872l-1.714 1.483c-.97-.924-1.854-1.287-3.431-1.287-1.523 0-2.6.782-2.6 1.93 0 1.173 1.106 1.564 2.434 1.844l2.185.475c1.964.42 3.763 1.593 3.763 3.886.002 3.102-3.069 4.611-5.864 4.611m13.332-.112c-1.855 0-3.707-.754-3.707-3.297v-8.945h-2.296v-2.07h2.269v-4.61h2.546v4.61h3.816v2.041h-3.816v8.441c0 1.202.636 1.65 1.687 1.65.83 0 1.577-.167 2.24-.363v2.068c-.912.336-2.13.475-2.74.475m13.498-.223c-.026-.336-.11-1.118-.11-1.455h-.083c-1.162 1.258-2.378 1.762-4.037 1.762-2.657 0-4.844-1.398-4.844-4.052 0-3.3 3.015-4.473 5.422-4.473h3.486v-1.65c0-1.817-1.107-2.626-2.905-2.626-1.495 0-2.906.531-2.906 1.9v.448h-2.323v-.308c0-2.99 2.654-4.024 5.312-4.024 2.849 0 5.338 1.062 5.338 4.276v7.24c0 .838.083 2.347.222 2.962zm-.164-6.318h-3.347c-1.606 0-3.015.504-3.015 2.376 0 1.51 1.244 2.181 2.765 2.181 2.38 0 3.597-1.313 3.597-3.215zm11.228 6.653c-2.324 0-4.566-.67-5.921-2.403l1.77-1.539a5.54 5.54 0 0 0 4.123 1.846c1.603 0 3.236-.67 3.236-2.125 0-1.397-.94-1.733-2.684-2.124l-1.852-.42c-1.964-.448-3.765-1.508-3.765-3.632 0-2.683 2.132-4.417 5.259-4.417 2.295 0 3.929.503 5.063 1.872l-1.716 1.483c-.969-.924-1.855-1.287-3.432-1.287-1.52 0-2.6.782-2.6 1.93 0 1.173 1.108 1.564 2.437 1.844l2.185.475c1.963.42 3.762 1.593 3.762 3.886.001 3.102-3.072 4.611-5.865 4.611m8.879-17.33v-3.046h2.543v3.046zm0 16.995v-14.144h2.543v14.144zm11.313.335c-2.323 0-4.565-.67-5.92-2.403l1.77-1.539a5.54 5.54 0 0 0 4.122 1.846c1.604 0 3.237-.67 3.237-2.125 0-1.397-.94-1.733-2.685-2.124l-1.854-.42c-1.964-.448-3.762-1.508-3.762-3.632 0-2.683 2.129-4.417 5.256-4.417 2.295 0 3.929.503 5.063 1.872l-1.714 1.483c-.97-.924-1.855-1.287-3.431-1.287-1.523 0-2.6.782-2.6 1.93 0 1.173 1.105 1.564 2.434 1.844l2.185.475c1.964.42 3.762 1.593 3.762 3.886.001 3.102-3.068 4.611-5.863 4.611m10.457 2.655h-1.468l.749-3.075h-.914v-3.578h2.821v3.522zm17.452-2.655c-3.458 0-6.336-1.844-6.336-5.757v-2.962c0-3.97 2.685-6.066 6.058-6.066 3.126 0 5.616 1.93 5.616 5.619v2.515h-9.046v.894c0 2.124 1.468 3.577 3.818 3.577 1.302 0 2.518-.838 3.264-1.873l1.964 1.006c-1.244 2.041-3.206 3.047-5.338 3.047m2.822-9.196c0-1.957-1.023-3.41-3.125-3.41-2.046 0-3.404 1.313-3.404 3.354v.7h6.53zm14.051 8.86-3.458-5.281-3.43 5.282h-2.879l4.926-7.352-4.565-6.792h2.96l3.099 4.752 3.1-4.752h2.82l-4.565 6.737 4.924 7.407zm10.759.336c-3.512 0-6.001-2.039-6.001-5.73v-3.074c0-3.745 2.517-5.982 5.947-5.982 3.32 0 5.643 1.93 5.643 4.948v.363h-2.463v-.363c0-1.426-1.078-2.767-3.154-2.767s-3.347 1.285-3.347 3.633v3.27c0 2.096 1.108 3.549 3.375 3.549 2.074 0 3.126-1.341 3.126-2.739v-.335h2.463v.28c0 3.047-2.269 4.947-5.59 4.947m15.132-12.326c-.443 0-1.219.084-1.603.224-1.44.53-2.464 1.984-2.464 4.052v7.715h-2.543v-14.144h2.488v2.515h.057c1.05-1.732 2.767-2.739 4.62-2.739.414 0 .913.084 1.244.112v2.376c-.333-.056-1.661-.11-1.8-.11m10.125 12.326c-3.46 0-6.336-1.844-6.336-5.757v-2.962c0-3.97 2.685-6.066 6.058-6.066 3.126 0 5.616 1.93 5.616 5.619v2.515h-9.046v.894c0 2.124 1.466 3.577 3.818 3.577 1.3 0 2.518-.838 3.264-1.873l1.964 1.006c-1.244 2.041-3.21 3.047-5.338 3.047m2.821-9.196c0-1.957-1.023-3.41-3.125-3.41-2.049 0-3.404 1.313-3.404 3.354v.7h6.53zm10.26 9.084c-1.855 0-3.705-.754-3.705-3.297v-8.945h-2.299v-2.07h2.27v-4.61h2.546v4.61h3.816v2.041h-3.816v8.441c0 1.202.636 1.65 1.687 1.65.83 0 1.577-.167 2.24-.363v2.068c-.912.336-2.13.475-2.74.475m5.282-17.218v-3.046h2.546v3.046zm0 16.995v-14.144h2.546v14.144zm11.812.335c-3.514 0-5.891-2.012-5.891-5.617v-3.3c0-3.744 2.627-5.87 5.864-5.87 3.484 0 5.892 2.208 5.892 5.815v3.13c0 3.746-2.655 5.842-5.865 5.842m3.264-9.112c0-2.068-1.02-3.493-3.264-3.493-2.074 0-3.292 1.285-3.292 3.577v3.355c0 2.068 1.023 3.52 3.266 3.52 2.075 0 3.29-1.286 3.29-3.577zm14.771 8.777v-8.86c0-2.264-1.105-3.356-2.764-3.356-1.912 0-3.487 1.565-3.487 4.053v8.162h-2.54v-14.144h2.49v2.096h.054c.97-1.51 2.352-2.405 4.233-2.405 3.043 0 4.566 2.152 4.566 4.836v9.615h-2.548zM593.32 168.715v-8.86c0-2.153-.94-3.356-2.684-3.356-1.963 0-3.375 1.761-3.375 3.942v8.274h-2.544v-8.833c0-2.096-.859-3.381-2.684-3.381-1.577 0-3.376 1.425-3.376 3.856v8.358h-2.545V154.57h2.463v2.096h.054c.997-1.509 2.325-2.405 4.233-2.405 2.047 0 3.292 1.007 3.956 2.433 0 0 .11 0 .11-.028.996-1.454 2.407-2.405 4.428-2.405 2.766 0 4.51 1.9 4.51 4.64v9.813zm11.698.335c-3.513 0-5.893-2.012-5.893-5.617v-3.3c0-3.744 2.629-5.87 5.865-5.87 3.484 0 5.893 2.209 5.893 5.815v3.13c0 3.746-2.655 5.842-5.865 5.842m3.265-9.112c0-2.068-1.024-3.493-3.265-3.493-2.075 0-3.292 1.285-3.292 3.577v3.355c0 2.068 1.022 3.52 3.265 3.52 2.075 0 3.292-1.286 3.292-3.577zm12.501-3.214c-.443 0-1.217.084-1.604.224-1.44.53-2.462 1.984-2.462 4.052v7.715h-2.545V154.57h2.49v2.515h.055c1.051-1.732 2.766-2.738 4.62-2.738.416 0 .915.083 1.246.111v2.376c-.332-.056-1.66-.11-1.8-.11m12.641 11.99c-.026-.334-.11-1.117-.11-1.454h-.082c-1.163 1.258-2.38 1.762-4.04 1.762-2.655 0-4.842-1.398-4.842-4.052 0-3.3 3.015-4.473 5.422-4.473h3.486v-1.65c0-1.817-1.107-2.626-2.905-2.626-1.494 0-2.906.531-2.906 1.9v.448h-2.325v-.308c0-2.99 2.656-4.024 5.313-4.024 2.85 0 5.34 1.062 5.34 4.276v7.24c0 .838.082 2.347.22 2.962zm-.164-6.316h-3.348c-1.605 0-3.016.503-3.016 2.375 0 1.51 1.245 2.181 2.767 2.181 2.38 0 3.597-1.313 3.597-3.215zm9.763 6.568c-2.711 0-3.348-1.873-3.348-3.633v-16.547h2.546v16.491c0 .839.387 1.51 1.438 1.51.527 0 1.023-.056 1.549-.139.055-.028.11-.028.138-.028v1.956c-.745.223-1.632.39-2.323.39m4.95-17.245v-3.047h2.545v3.047zm0 16.994V154.57h2.545v14.144zm10.984.223c-1.855 0-3.708-.754-3.708-3.297v-8.945h-2.296v-2.069h2.27v-4.611h2.543v4.611h3.819v2.04h-3.819v8.441c0 1.202.636 1.65 1.689 1.65.83 0 1.576-.167 2.24-.363v2.068c-.914.336-2.13.475-2.738.475m10.564 2.07c-.858 2.403-2.488 3.214-4.398 3.214-.415 0-1.3-.084-1.798-.17v-2.18c.498.085 1.383.169 1.687.169 1.079 0 1.77-.476 2.13-1.426l.802-2.18-5.117-13.892h2.767l3.624 10.705h.055l3.514-10.705h2.6zm9.93.697h-1.466l.747-3.075h-.914v-3.577h2.821v3.52zM575.52 200.808c-3.514 0-6.004-2.039-6.004-5.73v-3.074c0-3.745 2.518-5.982 5.948-5.982 3.32 0 5.643 1.93 5.643 4.948v.363h-2.46v-.363c0-1.426-1.08-2.767-3.154-2.767s-3.348 1.285-3.348 3.633v3.27c0 2.096 1.107 3.55 3.376 3.55 2.075 0 3.126-1.342 3.126-2.74v-.335h2.461v.28c0 3.047-2.268 4.947-5.588 4.947m15.129-12.326c-.443 0-1.217.084-1.603.224-1.44.53-2.463 1.984-2.463 4.052v7.715h-2.544v-14.144h2.49v2.515h.054c1.051-1.732 2.767-2.738 4.62-2.738.415 0 .915.083 1.245.111v2.376c-.332-.056-1.658-.11-1.799-.11m10.125 12.326c-3.457 0-6.335-1.844-6.335-5.757v-2.962c0-3.97 2.684-6.066 6.057-6.066 3.126 0 5.617 1.93 5.617 5.619v2.515h-9.047v.894c0 2.124 1.466 3.577 3.819 3.577 1.3 0 2.517-.838 3.264-1.873l1.964 1.006c-1.245 2.041-3.209 3.047-5.339 3.047m2.822-9.196c0-1.957-1.024-3.41-3.126-3.41-2.048 0-3.404 1.313-3.404 3.355v.698h6.53zm14.024 8.86c-.028-.334-.11-1.117-.11-1.454h-.083c-1.163 1.258-2.38 1.762-4.04 1.762-2.655 0-4.841-1.398-4.841-4.052 0-3.299 3.013-4.473 5.421-4.473h3.486v-1.65c0-1.817-1.108-2.626-2.906-2.626-1.494 0-2.906.531-2.906 1.9v.448h-2.323v-.308c0-2.99 2.654-4.024 5.312-4.024 2.849 0 5.338 1.062 5.338 4.276v7.24c0 .838.083 2.347.222 2.962zm-.166-6.316h-3.347c-1.605 0-3.015.503-3.015 2.375 0 1.51 1.244 2.181 2.766 2.181 2.379 0 3.596-1.313 3.596-3.215zm10.898 6.54c-1.854 0-3.708-.754-3.708-3.297v-8.945h-2.296v-2.069h2.27v-4.611h2.544v4.611h3.818v2.04h-3.818v8.441c0 1.202.636 1.65 1.688 1.65.83 0 1.577-.167 2.24-.363v2.068c-.913.336-2.13.475-2.738.475m5.28-17.217v-3.047h2.546v3.047zm0 16.994V186.33h2.546v14.144zm12.56.028h-2.6l-4.925-14.172h2.683l3.57 10.957h.055l3.568-10.957h2.574zm7.412-17.022v-3.047h2.545v3.047zm0 16.994V186.33h2.545v14.144zm10.982.223c-1.855 0-3.707-.754-3.707-3.297v-8.945h-2.296v-2.069h2.268v-4.611h2.546v4.611h3.818v2.04h-3.818v8.441c0 1.202.637 1.65 1.688 1.65.83 0 1.576-.167 2.24-.363v2.068c-.913.336-2.13.475-2.74.475m10.566 2.07c-.859 2.403-2.49 3.214-4.4 3.214-.413 0-1.3-.084-1.799-.17v-2.18c.498.085 1.386.169 1.689.169 1.079 0 1.77-.475 2.13-1.426l.803-2.18-5.118-13.892h2.766l3.625 10.705h.055l3.513-10.705h2.6zm9.93.697h-1.466l.747-3.075h-.913v-3.577h2.822v3.52zm-124.556 29.103c-2.325 0-4.564-.67-5.92-2.403l1.771-1.539a5.54 5.54 0 0 0 4.12 1.846c1.606 0 3.238-.67 3.238-2.125 0-1.397-.942-1.733-2.684-2.124l-1.854-.42c-1.964-.448-3.762-1.508-3.762-3.632 0-2.683 2.129-4.417 5.256-4.417 2.296 0 3.929.503 5.063 1.872l-1.716 1.483c-.968-.924-1.853-1.287-3.43-1.287-1.521 0-2.6.782-2.6 1.93 0 1.173 1.106 1.565 2.435 1.844l2.185.475c1.964.42 3.762 1.593 3.762 3.886.003 3.102-3.069 4.611-5.864 4.611m15.215 0c-1.549 0-3.015-.725-3.708-1.788h-.083v7.044h-2.543v-19.734h2.49v1.957h.053c1.024-1.537 2.519-2.264 4.04-2.264 3.043 0 5.146 1.958 5.146 5.088v4.331c-.001 3.688-2.63 5.366-5.395 5.366m2.794-9.559c0-1.733-1.079-3.02-3.126-3.02-1.632 0-3.459 1.426-3.459 3.551v3.577c0 2.068 1.744 3.326 3.487 3.326 1.549 0 3.098-.98 3.098-3.187zm11.257 9.56c-3.513 0-5.894-2.013-5.894-5.618v-3.3c0-3.744 2.628-5.87 5.865-5.87 3.486 0 5.894 2.209 5.894 5.815v3.13c0 3.746-2.656 5.842-5.865 5.842m3.265-9.113c0-2.068-1.024-3.493-3.265-3.493-2.074 0-3.292 1.285-3.292 3.577v3.355c0 2.068 1.023 3.52 3.264 3.52 2.074 0 3.293-1.285 3.293-3.577zm14.77 8.777v-8.86c0-2.264-1.107-3.355-2.767-3.355-1.908 0-3.484 1.565-3.484 4.052v8.163h-2.544v-14.144h2.488v2.096h.056c.968-1.509 2.352-2.405 4.232-2.405 3.044 0 4.565 2.152 4.565 4.837v9.616zm10.87.224c-1.854 0-3.706-.755-3.706-3.298v-8.945h-2.296v-2.069h2.268v-4.611h2.545v4.611h3.817v2.04h-3.817v8.441c0 1.202.636 1.65 1.687 1.65.83 0 1.577-.167 2.242-.363v2.068c-.914.336-2.131.476-2.74.476m13.498-.224c-.027-.335-.111-1.118-.111-1.455H632c-1.163 1.258-2.38 1.762-4.04 1.762-2.655 0-4.842-1.398-4.842-4.052 0-3.299 3.016-4.473 5.422-4.473h3.487v-1.65c0-1.816-1.108-2.626-2.906-2.626-1.494 0-2.906.531-2.906 1.9v.448h-2.325v-.308c0-2.99 2.656-4.024 5.313-4.024 2.85 0 5.34 1.062 5.34 4.276v7.24c0 .838.082 2.347.22 2.962zm-.164-6.317h-3.348c-1.604 0-3.015.503-3.015 2.375 0 1.51 1.245 2.181 2.766 2.181 2.38 0 3.597-1.313 3.597-3.215zm15.24 6.317v-8.86c0-2.264-1.106-3.355-2.766-3.355-1.91 0-3.485 1.565-3.485 4.052v8.163h-2.545v-14.144h2.49v2.096h.055c.968-1.509 2.352-2.405 4.233-2.405 3.043 0 4.564 2.152 4.564 4.837v9.616zm12.113.335c-3.458 0-6.334-1.844-6.334-5.757v-2.962c0-3.97 2.683-6.066 6.059-6.066 3.125 0 5.615 1.93 5.615 5.619v2.515h-9.045v.894c0 2.124 1.466 3.577 3.817 3.577 1.3 0 2.517-.838 3.265-1.873l1.964 1.006c-1.245 2.041-3.209 3.047-5.341 3.047m2.824-9.196c0-1.957-1.023-3.41-3.126-3.41-2.047 0-3.402 1.313-3.402 3.355v.698h6.528zm5.806-8.133v-3.047h2.545v3.047zm0 16.994v-14.144h2.545v14.144zm10.982.224c-1.855 0-3.707-.755-3.707-3.298v-8.945h-2.296v-2.069h2.268v-4.611h2.546v4.611h3.818v2.04h-3.818v8.441c0 1.202.637 1.65 1.688 1.65.83 0 1.576-.167 2.24-.363v2.068c-.912.336-2.13.476-2.74.476m10.566 2.069c-.857 2.403-2.49 3.214-4.398 3.214-.415 0-1.3-.084-1.8-.17v-2.18c.499.085 1.385.169 1.69.169 1.077 0 1.77-.475 2.128-1.426l.803-2.18-5.117-13.892h2.766l3.624 10.705h.056l3.513-10.705h2.6zm9.93.697h-1.466l.747-3.075h-.913v-3.577h2.822v3.52zm-163.913 29.103c-1.55 0-3.016-.725-3.708-1.788h-.083v7.044h-2.544v-19.734h2.49v1.957h.054c1.023-1.537 2.518-2.264 4.04-2.264 3.042 0 5.146 1.958 5.146 5.088v4.331c-.002 3.688-2.63 5.366-5.395 5.366m2.792-9.559c0-1.733-1.079-3.02-3.126-3.02-1.632 0-3.459 1.426-3.459 3.551v3.577c0 2.068 1.744 3.326 3.487 3.326 1.549 0 3.098-.98 3.098-3.187zm12.503-2.767c-.444 0-1.217.084-1.605.224-1.44.531-2.461 1.984-2.461 4.052v7.715h-2.545v-14.144h2.49v2.515h.055c1.05-1.732 2.766-2.738 4.62-2.738.415 0 .914.083 1.245.111v2.376c-.332-.056-1.66-.11-1.8-.11m9.708 12.326c-3.513 0-5.894-2.012-5.894-5.617v-3.3c0-3.744 2.63-5.87 5.866-5.87 3.484 0 5.893 2.209 5.893 5.815v3.13c0 3.746-2.656 5.842-5.865 5.842m3.265-9.112c0-2.068-1.024-3.493-3.265-3.493-2.075 0-3.292 1.285-3.292 3.577v3.355c0 2.068 1.022 3.52 3.265 3.52 2.075 0 3.292-1.285 3.292-3.577zm12.252 9.112c-1.576 0-3.042-.78-3.762-1.816h-.055v1.481h-2.462v-19.93h2.544v7.743h.028c.969-1.398 2.489-2.264 4.01-2.264 3.043 0 5.147 1.958 5.147 5.088v4.331c0 3.688-2.682 5.366-5.45 5.366m2.85-9.559c0-1.733-1.078-3.02-3.125-3.02-1.632 0-3.459 1.426-3.459 3.551v3.577c0 2.068 1.744 3.326 3.487 3.326 1.549 0 3.098-.98 3.098-3.187zm9.294 9.475c-2.711 0-3.349-1.873-3.349-3.633V244.06h2.545v16.491c0 .839.389 1.51 1.44 1.51.525 0 1.023-.056 1.549-.139.054-.028.11-.028.137-.028v1.956c-.746.223-1.631.39-2.322.39m10.649.084c-3.458 0-6.334-1.844-6.334-5.757v-2.962c0-3.97 2.683-6.066 6.057-6.066 3.126 0 5.617 1.93 5.617 5.619v2.515h-9.047v.894c0 2.124 1.466 3.577 3.819 3.577 1.299 0 2.517-.838 3.264-1.873l1.964 1.006c-1.245 2.041-3.21 3.047-5.34 3.047m2.823-9.196c0-1.957-1.024-3.41-3.126-3.41-2.048 0-3.404 1.313-3.404 3.355v.698h6.53zm23.015 8.861v-8.86c0-2.152-.94-3.355-2.685-3.355-1.963 0-3.374 1.76-3.374 3.941v8.274h-2.546v-8.833c0-2.096-.858-3.381-2.683-3.381-1.578 0-3.376 1.425-3.376 3.857v8.357h-2.545v-14.144h2.462v2.096h.056c.995-1.509 2.324-2.404 4.232-2.404 2.047 0 3.292 1.006 3.956 2.432 0 0 .11 0 .11-.028.996-1.454 2.407-2.404 4.428-2.404 2.766 0 4.508 1.9 4.508 4.64v9.812zm17.837.335c-2.323 0-4.565-.67-5.92-2.403l1.77-1.538a5.54 5.54 0 0 0 4.123 1.845c1.603 0 3.236-.67 3.236-2.125 0-1.397-.94-1.733-2.684-2.124l-1.855-.42c-1.964-.448-3.762-1.508-3.762-3.632 0-2.683 2.131-4.417 5.258-4.417 2.296 0 3.928.503 5.061 1.872l-1.714 1.483c-.969-.924-1.854-1.287-3.43-1.287-1.523 0-2.601.782-2.601 1.93 0 1.173 1.106 1.565 2.434 1.844l2.185.475c1.964.42 3.764 1.593 3.764 3.886 0 3.102-3.07 4.611-5.865 4.611m14.163 0c-3.513 0-5.893-2.012-5.893-5.617v-3.3c0-3.744 2.629-5.87 5.865-5.87 3.484 0 5.893 2.209 5.893 5.815v3.13c0 3.746-2.655 5.842-5.865 5.842m3.265-9.112c0-2.068-1.023-3.493-3.265-3.493-2.075 0-3.292 1.285-3.292 3.577v3.355c0 2.068 1.022 3.52 3.265 3.52 2.075 0 3.292-1.285 3.292-3.577zm9.293 9.028c-2.71 0-3.348-1.873-3.348-3.633V244.06h2.544v16.491c0 .839.389 1.51 1.44 1.51a10 10 0 0 0 1.55-.139c.053-.028.11-.028.136-.028v1.956c-.745.223-1.63.39-2.322.39m10.983-.223h-2.6l-4.925-14.172h2.683l3.57 10.957h.054l3.569-10.957h2.573zm7.41-17.022v-3.047h2.545v3.047zm0 16.994v-14.144h2.545v14.144zm15.326 0v-8.86c0-2.264-1.107-3.355-2.766-3.355-1.91 0-3.486 1.565-3.486 4.052v8.163h-2.545v-14.144h2.49v2.096h.055c.97-1.509 2.351-2.404 4.232-2.404 3.044 0 4.566 2.151 4.566 4.836v9.616zm11.34 5.645c-2.158 0-4.426-.866-5.451-2.878l2.408-1.09c.802 1.146 1.91 1.872 3.319 1.872 2.185 0 3.404-1.62 3.404-3.437v-2.376h-.027c-.886 1.314-2.296 2.124-3.955 2.124-3.21 0-5.174-1.956-5.174-5.086v-3.746c0-3.69 2.574-5.478 5.395-5.478 1.466 0 3.043.783 3.735 1.9h.054v-1.593h2.464v13.947c-.002 3.354-2.104 5.841-6.171 5.841m3.68-14.73c0-2.067-1.66-3.213-3.404-3.213-1.548 0-3.153.98-3.153 3.187v3.83c0 1.733 1.078 3.046 3.125 3.046 1.634 0 3.432-1.23 3.432-3.354zm7.965 12.075h-1.466l.746-3.075h-.912v-3.577h2.821v3.52zM529.754 296c-2.711 0-3.349-1.874-3.349-3.634v-16.547h2.546v16.491c0 .839.388 1.51 1.439 1.51.527 0 1.023-.056 1.549-.139.055-.028.11-.028.138-.028v1.957c-.745.222-1.632.39-2.323.39m13.168-.252c-.028-.335-.111-1.118-.111-1.455h-.082c-1.163 1.258-2.38 1.762-4.04 1.762-2.655 0-4.842-1.398-4.842-4.052 0-3.299 3.014-4.473 5.422-4.473h3.485v-1.65c0-1.816-1.107-2.626-2.905-2.626-1.494 0-2.906.531-2.906 1.9v.448h-2.324v-.307c0-2.99 2.655-4.025 5.313-4.025 2.849 0 5.338 1.062 5.338 4.276v7.24c0 .838.083 2.347.221 2.962zm-.166-6.317h-3.347c-1.605 0-3.015.503-3.015 2.375 0 1.51 1.244 2.181 2.766 2.181 2.378 0 3.596-1.313 3.596-3.215zm11.808 6.652c-3.513 0-6.002-2.039-6.002-5.73v-3.074c0-3.745 2.518-5.982 5.947-5.982 3.32 0 5.644 1.93 5.644 4.948v.363h-2.463v-.363c0-1.426-1.078-2.767-3.153-2.767s-3.347 1.286-3.347 3.633v3.27c0 2.096 1.106 3.55 3.374 3.55 2.075 0 3.126-1.342 3.126-2.74v-.335h2.463v.28c.001 3.047-2.268 4.947-5.589 4.947m17.483-.335-4.066-7.184-2.27 2.46v4.724h-2.543v-19.929h2.544v12.383l5.92-6.597h2.906l-4.813 5.228 5.283 8.916zm17.288.335c-3.514 0-5.894-2.012-5.894-5.617v-3.299c0-3.745 2.63-5.87 5.865-5.87 3.486 0 5.894 2.208 5.894 5.814v3.13c0 3.746-2.656 5.842-5.865 5.842m3.263-9.112c0-2.068-1.022-3.493-3.264-3.493-2.074 0-3.293 1.286-3.293 3.577v3.355c0 2.068 1.024 3.52 3.265 3.52 2.075 0 3.292-1.285 3.292-3.577zm11.398-9.196c-.997 0-1.689.56-1.689 1.566v2.404h2.74v1.957h-2.74v12.046h-2.545v-12.046h-2.323v-1.957h2.323v-1.818c0-1.425.222-4.275 3.93-4.275.468 0 .968.055 1.409.083v2.095c-.36-.027-.747-.055-1.105-.055m16.984 18.308c-1.55 0-3.016-.725-3.708-1.788h-.083v7.044h-2.544v-19.734h2.49v1.957h.054c1.023-1.537 2.518-2.264 4.04-2.264 3.042 0 5.146 1.958 5.146 5.088v4.332c-.002 3.687-2.63 5.365-5.395 5.365m2.792-9.559c0-1.733-1.079-3.02-3.126-3.02-1.632 0-3.459 1.426-3.459 3.551v3.577c0 2.068 1.744 3.326 3.487 3.326 1.549 0 3.098-.98 3.098-3.187zm12.503-2.767c-.444 0-1.217.084-1.605.224-1.44.531-2.461 1.984-2.461 4.052v7.715h-2.545v-14.144h2.49v2.515h.055c1.05-1.732 2.766-2.738 4.62-2.738.415 0 .914.083 1.245.111v2.376c-.332-.056-1.66-.11-1.8-.11m10.122 12.326c-3.457 0-6.335-1.844-6.335-5.757v-2.962c0-3.97 2.684-6.066 6.059-6.066 3.126 0 5.615 1.93 5.615 5.619v2.515h-9.045v.894c0 2.124 1.466 3.577 3.817 3.577 1.301 0 2.517-.838 3.265-1.873l1.964 1.006c-1.244 2.041-3.208 3.047-5.34 3.047m2.822-9.196c0-1.957-1.024-3.41-3.126-3.41-2.047 0-3.402 1.313-3.402 3.355v.698h6.528zm8.905 10.23c0 2.683-1.384 4.109-4.232 4.109-.388 0-.995 0-1.329-.083v-2.152c.194.056 1.08.083 1.302.083 1.161 0 1.687-.727 1.687-2.013v-15.457h2.572v15.541zm-2.544-18.363v-3.047h2.544v3.047zm15.38 16.994v-2.096h-.083c-.969 1.51-2.324 2.405-4.205 2.405-3.043 0-4.566-2.181-4.566-4.836v-9.616h2.546v8.833c0 2.264 1.107 3.382 2.765 3.382 1.938 0 3.46-1.564 3.46-4.025v-8.19h2.572v14.143zm14.965 0v-1.818h-.055c-.86 1.258-2.519 2.152-4.039 2.152-3.044 0-5.147-1.956-5.147-5.086v-4.333c0-3.69 2.767-5.367 5.533-5.367 1.439 0 2.877.726 3.57 1.788h.081v-7.267h2.545v19.931zm-.055-9.084c0-2.095-1.689-3.242-3.432-3.242-1.547 0-3.154.978-3.154 3.186v4.25c0 1.732 1.079 3.018 3.126 3.018 1.633 0 3.458-1.2 3.458-3.354v-3.858zm6.525-7.91v-3.047h2.545v3.047zm0 16.994v-14.144h2.545v14.144zm11.896.335c-3.515 0-6.004-2.039-6.004-5.73v-3.074c0-3.745 2.518-5.982 5.948-5.982 3.32 0 5.643 1.93 5.643 4.948v.363h-2.462v-.363c0-1.426-1.078-2.767-3.153-2.767s-3.348 1.286-3.348 3.633v3.27c0 2.096 1.106 3.55 3.376 3.55 2.074 0 3.125-1.342 3.125-2.74v-.335h2.462v.28c.001 3.047-2.267 4.947-5.587 4.947m14.3 0c-3.459 0-6.335-1.844-6.335-5.757v-2.962c0-3.97 2.683-6.066 6.059-6.066 3.125 0 5.615 1.93 5.615 5.619v2.515h-9.045v.894c0 2.124 1.466 3.577 3.817 3.577 1.3 0 2.517-.838 3.265-1.873l1.964 1.006c-1.245 2.041-3.208 3.047-5.34 3.047m2.822-9.196c0-1.957-1.024-3.41-3.126-3.41-2.047 0-3.402 1.313-3.402 3.355v.698h6.528zm7.384 11.851h-1.466l.747-3.075h-.913v-3.577h2.821v3.521zm-209.472 28.768c-.026-.335-.11-1.118-.11-1.455h-.082c-1.163 1.258-2.38 1.762-4.04 1.762-2.655 0-4.842-1.398-4.842-4.052 0-3.299 3.015-4.473 5.422-4.473h3.486v-1.65c0-1.816-1.107-2.626-2.905-2.626-1.494 0-2.906.531-2.906 1.9v.448h-2.325v-.307c0-2.99 2.656-4.025 5.313-4.025 2.85 0 5.34 1.062 5.34 4.276v7.24c0 .838.082 2.347.22 2.962zm-.164-6.317h-3.348c-1.605 0-3.016.503-3.016 2.375 0 1.51 1.245 2.181 2.767 2.181 2.38 0 3.597-1.313 3.597-3.215zm11.81 6.652c-3.513 0-6.003-2.038-6.003-5.73v-3.074c0-3.745 2.519-5.982 5.947-5.982 3.321 0 5.644 1.93 5.644 4.948v.363h-2.463v-.363c0-1.426-1.077-2.767-3.153-2.767s-3.347 1.286-3.347 3.633v3.27c0 2.096 1.107 3.55 3.375 3.55 2.074 0 3.125-1.342 3.125-2.74v-.335h2.463v.28c0 3.047-2.269 4.947-5.588 4.947m13.969 0c-3.513 0-6.003-2.038-6.003-5.73v-3.074c0-3.745 2.517-5.982 5.947-5.982 3.32 0 5.643 1.93 5.643 4.948v.363h-2.462v-.363c0-1.426-1.079-2.767-3.154-2.767s-3.347 1.286-3.347 3.633v3.27c0 2.096 1.106 3.55 3.376 3.55 2.073 0 3.125-1.342 3.125-2.74v-.335h2.462v.28c0 3.047-2.268 4.947-5.587 4.947m14.299 0c-3.458 0-6.334-1.844-6.334-5.757v-2.962c0-3.97 2.683-6.066 6.057-6.066 3.126 0 5.617 1.93 5.617 5.619v2.515h-9.047v.894c0 2.124 1.466 3.578 3.819 3.578 1.299 0 2.517-.839 3.264-1.874l1.964 1.006c-1.245 2.041-3.21 3.047-5.34 3.047m2.823-9.195c0-1.958-1.024-3.411-3.126-3.411-2.048 0-3.404 1.313-3.404 3.355v.698h6.53zm12.142 9.195c-1.55 0-3.015-.725-3.707-1.788h-.083v7.044h-2.545v-19.733h2.49v1.956h.055c1.023-1.537 2.517-2.264 4.04-2.264 3.042 0 5.145 1.958 5.145 5.088v4.332c-.002 3.687-2.628 5.365-5.395 5.365m2.793-9.559c0-1.733-1.077-3.02-3.125-3.02-1.632 0-3.458 1.426-3.458 3.551v3.577c0 2.069 1.744 3.326 3.485 3.326 1.55 0 3.098-.98 3.098-3.187zm10.429 9.448c-1.855 0-3.707-.755-3.707-3.298v-8.944h-2.296v-2.07h2.268v-4.611h2.545v4.611h3.817v2.04h-3.817v8.442c0 1.201.636 1.65 1.687 1.65.83 0 1.577-.168 2.242-.364v2.068c-.914.336-2.132.476-2.74.476m13.497-.224c-.027-.335-.11-1.118-.11-1.455h-.083c-1.163 1.258-2.38 1.762-4.04 1.762-2.655 0-4.841-1.398-4.841-4.052 0-3.299 3.015-4.473 5.421-4.473h3.487v-1.65c0-1.816-1.108-2.626-2.906-2.626-1.494 0-2.905.531-2.905 1.9v.448h-2.325v-.307c0-2.99 2.655-4.025 5.312-4.025 2.85 0 5.34 1.062 5.34 4.276v7.24c0 .838.083 2.347.221 2.962zm-.164-6.317h-3.348c-1.604 0-3.015.503-3.015 2.375 0 1.51 1.245 2.181 2.766 2.181 2.38 0 3.597-1.313 3.597-3.215zm15.24 6.317v-8.86c0-2.264-1.106-3.355-2.766-3.355-1.91 0-3.485 1.565-3.485 4.052v8.163h-2.545v-14.144h2.49v2.096h.055c.968-1.509 2.352-2.404 4.233-2.404 3.043 0 4.564 2.151 4.564 4.836v9.616zm11.783.335c-3.513 0-6.003-2.038-6.003-5.73v-3.074c0-3.745 2.519-5.982 5.947-5.982 3.32 0 5.644 1.93 5.644 4.948v.363h-2.463v-.363c0-1.426-1.077-2.767-3.153-2.767s-3.347 1.286-3.347 3.633v3.27c0 2.096 1.106 3.55 3.375 3.55 2.074 0 3.125-1.342 3.125-2.74v-.335h2.463v.28c0 3.047-2.27 4.947-5.588 4.947m14.3 0c-3.457 0-6.334-1.844-6.334-5.757v-2.962c0-3.97 2.683-6.066 6.058-6.066 3.125 0 5.616 1.93 5.616 5.619v2.515h-9.046v.894c0 2.124 1.466 3.578 3.818 3.578 1.3 0 2.517-.839 3.264-1.874l1.964 1.006c-1.245 2.041-3.21 3.047-5.34 3.047m2.823-9.195c0-1.958-1.023-3.411-3.126-3.411-2.048 0-3.403 1.313-3.403 3.355v.698h6.529zm17.728 9.195c-3.513 0-5.893-2.012-5.893-5.617v-3.299c0-3.745 2.628-5.87 5.864-5.87 3.487 0 5.895 2.208 5.895 5.814V322c0 3.746-2.656 5.842-5.866 5.842m3.265-9.112c0-2.068-1.023-3.493-3.265-3.493-2.073 0-3.291 1.286-3.291 3.577v3.355c0 2.068 1.023 3.52 3.264 3.52 2.074 0 3.292-1.285 3.292-3.577zm11.397-9.195c-.996 0-1.689.558-1.689 1.565v2.404h2.74v1.957h-2.74v12.046h-2.543v-12.046h-2.325v-1.957h2.325v-1.818c0-1.425.22-4.275 3.927-4.275.47 0 .97.055 1.411.083v2.095c-.36-.027-.747-.054-1.106-.054m16.07 0c-.996 0-1.689.558-1.689 1.565v2.404h2.74v1.957h-2.74v12.046h-2.544v-12.046h-2.324v-1.957h2.324v-1.818c0-1.425.222-4.275 3.928-4.275.47 0 .97.055 1.411.083v2.095c-.36-.027-.747-.054-1.106-.054m12.224 17.972c-.026-.335-.11-1.118-.11-1.455h-.082c-1.163 1.258-2.38 1.762-4.04 1.762-2.655 0-4.842-1.398-4.842-4.052 0-3.299 3.015-4.473 5.422-4.473h3.486v-1.65c0-1.816-1.107-2.626-2.905-2.626-1.494 0-2.906.531-2.906 1.9v.448h-2.325v-.307c0-2.99 2.656-4.025 5.313-4.025 2.85 0 5.34 1.062 5.34 4.276v7.24c0 .838.082 2.347.22 2.962zm-.163-6.317h-3.348c-1.605 0-3.015.503-3.015 2.375 0 1.51 1.244 2.181 2.766 2.181 2.38 0 3.597-1.313 3.597-3.215zm11.809 6.652c-3.513 0-6.003-2.038-6.003-5.73v-3.074c0-3.745 2.519-5.982 5.947-5.982 3.321 0 5.644 1.93 5.644 4.948v.363h-2.463v-.363c0-1.426-1.077-2.767-3.153-2.767s-3.347 1.286-3.347 3.633v3.27c0 2.096 1.107 3.55 3.375 3.55 2.074 0 3.125-1.342 3.125-2.74v-.335h2.463v.28c0 3.047-2.268 4.947-5.588 4.947m13.056-.111c-1.855 0-3.707-.755-3.707-3.298v-8.944h-2.296v-2.07h2.268v-4.611h2.545v4.611h3.817v2.04h-3.817v8.442c0 1.201.636 1.65 1.688 1.65.83 0 1.576-.168 2.241-.364v2.068c-.914.336-2.132.476-2.74.476m10.068.111c-2.324 0-4.564-.67-5.92-2.403l1.771-1.538a5.54 5.54 0 0 0 4.12 1.845c1.606 0 3.238-.67 3.238-2.125 0-1.397-.942-1.733-2.684-2.124l-1.854-.42c-1.964-.448-3.762-1.508-3.762-3.632 0-2.683 2.129-4.417 5.256-4.417 2.296 0 3.93.503 5.063 1.872l-1.716 1.483c-.968-.924-1.853-1.287-3.43-1.287-1.521 0-2.6.782-2.6 1.93 0 1.173 1.106 1.565 2.435 1.844l2.186.475c1.963.42 3.761 1.593 3.761 3.886.002 3.102-3.07 4.611-5.864 4.611"/><path fill="none" stroke="#1a1a1a" stroke-width="6" d="M299 650h619L608.5 118z" transform="matrix(1.25732 0 0 1.27032 -137.522 -112.026)"/><path fill="#1a1a1a" d="M14.941 331.682c-4.135 0-7.243-2.012-8.147-5.61l2.836-.884c.695 2.287 2.505 3.872 5.372 3.872 2.293 0 4.707-1.128 4.707-3.659 0-2.103-1.6-2.989-3.651-3.536-.694-.184-3.651-1.067-4.316-1.311-2.083-.793-3.803-2.378-3.803-5.154 0-3.963 3.108-6.189 7.061-6.189 3.44 0 6.217 1.22 7.363 4.361l-2.565 1.096c-.965-2.041-2.534-2.896-4.828-2.896-2.052 0-4.043 1.159-4.043 3.323 0 1.709 1.327 2.562 3.048 3.049.694.213 3.741 1.098 4.496 1.372 2.293.793 4.254 2.349 4.254 5.58.002 4.177-3.469 6.586-7.784 6.586m16.716 0c-3.772 0-6.91-2.012-6.91-6.28v-3.232c0-4.33 2.927-6.617 6.609-6.617 3.41 0 6.127 2.103 6.127 6.128v2.743h-9.87v.977c0 2.317 1.6 3.903 4.165 3.903 1.418 0 2.746-.916 3.56-2.043l2.145 1.098c-1.358 2.225-3.502 3.323-5.826 3.323m3.078-10.03c0-2.136-1.116-3.721-3.41-3.721-2.233 0-3.712 1.433-3.712 3.66v.762h7.122zm9.113 9.938c-2.957 0-3.65-2.042-3.65-3.963v-18.05h2.775v17.989c0 .915.423 1.646 1.57 1.646.574 0 1.117-.06 1.69-.152.06-.03.121-.03.151-.03v2.135c-.816.242-1.781.425-2.536.425m10.471-19.88c-1.086 0-1.84.61-1.84 1.708v2.621h2.987v2.136h-2.987v13.141h-2.777v-13.141h-2.534v-2.136h2.534v-1.982c0-1.556.242-4.665 4.285-4.665.513 0 1.057.06 1.54.091v2.287c-.393-.028-.815-.06-1.208-.06m2.594 12.501v-2.378h8.51v2.378zm20.008 7.105c-.03-.366-.12-1.22-.12-1.585h-.091c-1.268 1.372-2.596 1.92-4.406 1.92-2.897 0-5.282-1.524-5.282-4.42 0-3.598 3.29-4.878 5.916-4.878h3.802v-1.8c0-1.982-1.207-2.865-3.17-2.865-1.63 0-3.168.58-3.168 2.073v.488h-2.535v-.335c0-3.263 2.897-4.39 5.794-4.39 3.108 0 5.823 1.157 5.823 4.664v7.898c0 .914.091 2.56.242 3.231H76.92zm-.181-6.892h-3.651c-1.75 0-3.29.55-3.29 2.592 0 1.648 1.358 2.38 3.018 2.38 2.595 0 3.924-1.435 3.924-3.508v-1.464zm12.039 7.258c-3.833 0-6.549-2.226-6.549-6.251v-3.354c0-4.087 2.746-6.526 6.488-6.526 3.621 0 6.156 2.104 6.156 5.397v.396h-2.686v-.396c0-1.555-1.176-3.019-3.44-3.019-2.263 0-3.65 1.403-3.65 3.964v3.568c0 2.287 1.206 3.872 3.682 3.872 2.263 0 3.41-1.462 3.41-2.988v-.364h2.685v.305c0 3.323-2.475 5.396-6.096 5.396m13.398-.122c-2.022 0-4.044-.823-4.044-3.599v-9.757h-2.505v-2.255h2.475v-5.032h2.776v5.032h4.164v2.226h-4.164v9.207c0 1.31.694 1.8 1.84 1.8.906 0 1.72-.184 2.445-.397v2.257c-.996.365-2.324.518-2.987.518m14.484-.244v-2.287h-.09c-1.057 1.647-2.535 2.621-4.587 2.621-3.32 0-4.98-2.378-4.98-5.274v-10.49h2.777v9.636c0 2.47 1.207 3.69 3.017 3.69 2.113 0 3.772-1.708 3.772-4.391v-8.934h2.807v15.429zm15.027 0c-.03-.366-.12-1.22-.12-1.585h-.09c-1.268 1.372-2.596 1.92-4.407 1.92-2.896 0-5.282-1.524-5.282-4.42 0-3.598 3.29-4.878 5.916-4.878h3.802v-1.8c0-1.982-1.207-2.865-3.17-2.865-1.629 0-3.168.58-3.168 2.073v.488h-2.535v-.335c0-3.263 2.897-4.39 5.794-4.39 3.108 0 5.824 1.157 5.824 4.664v7.898c0 .914.09 2.56.241 3.231zm-.18-6.892h-3.652c-1.75 0-3.29.55-3.29 2.592 0 1.648 1.359 2.38 3.018 2.38 2.596 0 3.925-1.435 3.925-3.508zm9.805 7.166c-2.957 0-3.651-2.042-3.651-3.963v-18.05h2.776v17.989c0 .915.422 1.646 1.57 1.646.574 0 1.117-.06 1.69-.152.06-.03.12-.03.151-.03v2.135c-.816.242-1.782.425-2.536.425m4.557-18.813v-3.323h2.776v3.323zm0 18.539v-15.43h2.776v15.43zm5.34 0v-2.226l8.178-10.915h-7.786v-2.288h11.256v2.166l-8.209 10.945h8.36v2.318zm23.477 0c-.03-.366-.12-1.22-.12-1.585h-.09c-1.268 1.372-2.596 1.92-4.407 1.92-2.896 0-5.282-1.524-5.282-4.42 0-3.598 3.29-4.878 5.916-4.878h3.802v-1.8c0-1.982-1.207-2.865-3.17-2.865-1.629 0-3.168.58-3.168 2.073v.488h-2.535v-.335c0-3.263 2.897-4.39 5.794-4.39 3.108 0 5.824 1.157 5.824 4.664v7.898c0 .914.09 2.56.241 3.231zm-.18-6.892h-3.652c-1.75 0-3.29.55-3.29 2.592 0 1.648 1.359 2.38 3.018 2.38 2.596 0 3.924-1.435 3.924-3.508zm11.042 7.136c-2.022 0-4.043-.823-4.043-3.599v-9.757H179v-2.255h2.475v-5.032h2.776v5.032h4.164v2.226h-4.164v9.207c0 1.31.694 1.8 1.84 1.8.906 0 1.72-.184 2.445-.397v2.257c-.995.365-2.324.518-2.988.518m4.919-18.783v-3.323h2.776v3.323zm0 18.539v-15.43h2.776v15.43zm12.04.366c-3.832 0-6.427-2.197-6.427-6.128v-3.598c0-4.086 2.866-6.403 6.397-6.403 3.802 0 6.427 2.408 6.427 6.341v3.415c0 4.086-2.897 6.373-6.397 6.373m3.56-9.94c0-2.255-1.116-3.811-3.561-3.811-2.263 0-3.591 1.402-3.591 3.902v3.66c0 2.255 1.116 3.84 3.56 3.84 2.264 0 3.591-1.402 3.591-3.902zm15.27 9.574v-9.665c0-2.47-1.207-3.66-3.018-3.66-2.082 0-3.802 1.71-3.802 4.421v8.904h-2.776v-15.43h2.715v2.289h.06c1.057-1.647 2.566-2.622 4.618-2.622 3.319 0 4.979 2.348 4.979 5.274v10.489zM10.705 526.946v-21.74h2.988v19.087h10.472v2.652zm21.455.365c-3.832 0-6.427-2.196-6.427-6.128v-3.597c0-4.087 2.867-6.404 6.397-6.404 3.802 0 6.428 2.409 6.428 6.341v3.415c0 4.087-2.897 6.373-6.398 6.373m3.562-9.94c0-2.255-1.116-3.811-3.562-3.811-2.263 0-3.59 1.402-3.59 3.902v3.66c0 2.255 1.116 3.84 3.561 3.84 2.264 0 3.591-1.402 3.591-3.902zm12.25 9.605h-2.836l-5.371-15.46h2.927l3.892 11.953h.06l3.895-11.953h2.806zm13.459.335c-3.772 0-6.91-2.012-6.91-6.28v-3.232c0-4.33 2.926-6.617 6.608-6.617 3.41 0 6.127 2.104 6.127 6.128v2.744h-9.869v.977c0 2.317 1.6 3.902 4.164 3.902 1.419 0 2.746-.916 3.561-2.042l2.144 1.097c-1.358 2.226-3.502 3.323-5.825 3.323m3.078-10.03c0-2.136-1.117-3.721-3.41-3.721-2.233 0-3.713 1.433-3.713 3.66v.762h7.123zm5.883 10.792h-2.173l7.393-23.293h2.082zm15.903-.762c-1.72 0-3.319-.853-4.105-1.983h-.06v1.617h-2.686v-21.739h2.776v8.446h.03c1.057-1.525 2.716-2.47 4.376-2.47 3.32 0 5.614 2.135 5.614 5.549v4.727c0 4.024-2.927 5.853-5.945 5.853m3.108-10.428c0-1.89-1.176-3.292-3.41-3.292-1.78 0-3.771 1.554-3.771 3.871v3.903c0 2.256 1.9 3.628 3.802 3.628 1.69 0 3.38-1.067 3.38-3.476zm11.888 10.428c-3.772 0-6.91-2.012-6.91-6.28v-3.232c0-4.33 2.927-6.617 6.609-6.617 3.41 0 6.127 2.104 6.127 6.128v2.744h-9.87v.977c0 2.317 1.6 3.902 4.165 3.902 1.418 0 2.746-.916 3.56-2.042l2.145 1.097c-1.358 2.226-3.502 3.323-5.826 3.323m3.078-10.03c0-2.136-1.116-3.721-3.41-3.721-2.233 0-3.712 1.433-3.712 3.66v.762h7.122zm9.113 9.939c-2.957 0-3.65-2.043-3.65-3.964v-18.05h2.775v17.99c0 .914.423 1.646 1.57 1.646.574 0 1.117-.061 1.69-.153.06-.029.121-.029.151-.029v2.134c-.816.243-1.781.426-2.536.426m10.32.091c-3.832 0-6.427-2.196-6.427-6.128v-3.597c0-4.087 2.867-6.404 6.397-6.404 3.802 0 6.428 2.409 6.428 6.341v3.415c0 4.087-2.897 6.373-6.398 6.373m3.561-9.94c0-2.255-1.116-3.811-3.562-3.811-2.263 0-3.59 1.402-3.59 3.902v3.66c0 2.255 1.116 3.84 3.561 3.84 2.263 0 3.591-1.402 3.591-3.902zm15.239 9.574v-9.664c0-2.47-1.207-3.66-3.018-3.66-2.082 0-3.802 1.709-3.802 4.42v8.904h-2.776v-15.429h2.716v2.288h.06c1.056-1.646 2.565-2.622 4.617-2.622 3.32 0 4.979 2.349 4.979 5.274v10.49zm11.526 6.16c-2.354 0-4.828-.945-5.946-3.141l2.625-1.19c.875 1.25 2.082 2.042 3.621 2.042 2.384 0 3.712-1.768 3.712-3.75v-2.591h-.03c-.966 1.433-2.505 2.317-4.317 2.317-3.5 0-5.643-2.134-5.643-5.549v-4.087c0-4.024 2.807-5.975 5.886-5.975 1.6 0 3.32.853 4.074 2.073h.06v-1.738h2.686v15.216c.002 3.659-2.291 6.373-6.728 6.373m4.014-16.07c0-2.255-1.81-3.505-3.711-3.505-1.69 0-3.44 1.067-3.44 3.475v4.177c0 1.89 1.176 3.323 3.41 3.323 1.781 0 3.743-1.343 3.743-3.66v-3.81zm6.125-8.629v-3.323h2.776v3.323zm0 18.54v-15.43h2.776v15.43zm15.872 0v-9.665c0-2.47-1.207-3.66-3.018-3.66-2.082 0-3.802 1.709-3.802 4.42v8.904h-2.776v-15.429h2.716v2.288h.06c1.056-1.646 2.565-2.622 4.617-2.622 3.32 0 4.98 2.349 4.98 5.274v10.49zm11.527 6.16c-2.354 0-4.828-.946-5.946-3.142l2.626-1.19c.875 1.25 2.082 2.042 3.62 2.042 2.384 0 3.712-1.768 3.712-3.75v-2.591h-.03c-.966 1.433-2.505 2.317-4.316 2.317-3.5 0-5.643-2.134-5.643-5.549v-4.087c0-4.024 2.806-5.975 5.885-5.975 1.6 0 3.32.853 4.074 2.073h.06v-1.738h2.686v15.216c.001 3.659-2.292 6.373-6.728 6.373m4.013-16.07c0-2.256-1.81-3.506-3.711-3.506-1.69 0-3.44 1.067-3.44 3.475v4.177c0 1.89 1.177 3.323 3.41 3.323 1.781 0 3.743-1.343 3.743-3.66v-3.81zM17.114 697.584h-4.709v8.477H9.448v-21.74h7.726c4.255 0 7.152 2.41 7.152 6.556 0 3.78-2.474 6.707-7.212 6.707m-.573-10.703h-4.136v8.142H16.6c3.017 0 4.739-1.372 4.739-4.148 0-2.712-1.871-3.994-4.798-3.994m20.005 19.18v-9.665c0-2.47-1.207-3.66-3.018-3.66-2.082 0-3.802 1.709-3.802 4.421v8.904H26.95v-21.74h2.776v8.6h.06c1.057-1.677 2.596-2.622 4.558-2.622 3.32 0 4.98 2.348 4.98 5.274v10.488zm11.92 2.5c-.936 2.622-2.717 3.507-4.799 3.507-.452 0-1.418-.091-1.961-.184v-2.378c.543.091 1.509.184 1.84.184 1.177 0 1.932-.518 2.324-1.556l.875-2.378-5.582-15.154h3.017l3.953 11.677h.06l3.833-11.677h2.836zm13.488-2.134c-2.535 0-4.98-.732-6.458-2.622l1.931-1.677c1.117 1.25 2.746 2.013 4.497 2.013s3.53-.731 3.53-2.317c0-1.524-1.026-1.89-2.927-2.317l-2.022-.457c-2.142-.488-4.104-1.647-4.104-3.964 0-2.928 2.324-4.817 5.734-4.817 2.504 0 4.285.55 5.523 2.042l-1.87 1.616c-1.057-1.007-2.022-1.403-3.742-1.403-1.66 0-2.837.855-2.837 2.104 0 1.28 1.207 1.708 2.655 2.012l2.384.518c2.143.458 4.104 1.738 4.104 4.24-.001 3.382-3.35 5.029-6.398 5.029m8.84-18.905v-3.324h2.776v3.324zm0 18.539v-15.43h2.776v15.43zm12.01.366c-3.832 0-6.428-2.197-6.428-6.128V696.7c0-4.087 2.867-6.404 6.398-6.404 3.802 0 6.427 2.409 6.427 6.342v3.414c.001 4.087-2.896 6.374-6.397 6.374m3.562-9.94c0-2.256-1.117-3.812-3.562-3.812-2.263 0-3.591 1.403-3.591 3.903v3.66c0 2.254 1.116 3.84 3.562 3.84 2.263 0 3.59-1.403 3.59-3.903zm9.262 9.848c-2.957 0-3.65-2.043-3.65-3.963v-18.05h2.775v17.989c0 .914.423 1.646 1.57 1.646.574 0 1.117-.06 1.69-.152.06-.03.121-.03.151-.03v2.135c-.816.242-1.781.425-2.536.425m10.32.092c-3.832 0-6.427-2.197-6.427-6.128V696.7c0-4.087 2.867-6.404 6.397-6.404 3.802 0 6.428 2.409 6.428 6.342v3.414c0 4.087-2.897 6.374-6.397 6.374m3.562-9.94c0-2.256-1.116-3.812-3.561-3.812-2.264 0-3.591 1.403-3.591 3.903v3.66c0 2.254 1.116 3.84 3.56 3.84 2.264 0 3.591-1.403 3.591-3.903zm11.044 15.733c-2.354 0-4.829-.945-5.946-3.141l2.625-1.189c.875 1.249 2.082 2.041 3.621 2.041 2.384 0 3.712-1.768 3.712-3.75v-2.591h-.03c-.966 1.433-2.505 2.317-4.317 2.317-3.5 0-5.643-2.134-5.643-5.549v-4.086c0-4.025 2.807-5.976 5.886-5.976 1.599 0 3.319.854 4.073 2.073h.06v-1.738h2.686v15.216c.002 3.659-2.292 6.373-6.727 6.373m4.013-16.07c0-2.255-1.81-3.505-3.712-3.505-1.69 0-3.44 1.067-3.44 3.475v4.177c0 1.89 1.177 3.323 3.41 3.323 1.782 0 3.743-1.342 3.743-3.66v-3.81zm6.124-8.628v-3.324h2.776v3.324zm0 18.539v-15.43h2.776v15.43zm12.132.366c-3.832 0-6.548-2.226-6.548-6.252v-3.353c0-4.087 2.746-6.526 6.488-6.526 3.62 0 6.156 2.104 6.156 5.396v.397h-2.686v-.397c0-1.555-1.177-3.018-3.44-3.018s-3.651 1.402-3.651 3.963v3.569c0 2.286 1.207 3.872 3.682 3.872 2.264 0 3.41-1.462 3.41-2.988v-.365h2.686v.305c-.001 3.323-2.476 5.397-6.097 5.397m17.502-.366c-.03-.366-.12-1.22-.12-1.586h-.091c-1.268 1.372-2.595 1.921-4.406 1.921-2.897 0-5.282-1.524-5.282-4.42 0-3.598 3.29-4.879 5.916-4.879h3.802V695.3c0-1.983-1.207-2.866-3.17-2.866-1.63 0-3.168.579-3.168 2.073v.488h-2.535v-.336c0-3.262 2.897-4.39 5.794-4.39 3.108 0 5.824 1.157 5.824 4.665v7.897c0 .915.09 2.561.241 3.232zm-.181-6.892h-3.651c-1.75 0-3.29.55-3.29 2.592 0 1.647 1.358 2.379 3.018 2.379 2.595 0 3.924-1.434 3.924-3.507zm9.806 7.166c-2.957 0-3.652-2.043-3.652-3.963v-18.05h2.777v17.989c0 .914.422 1.646 1.57 1.646.573 0 1.117-.06 1.69-.152.06-.03.12-.03.15-.03v2.135c-.815.242-1.78.425-2.535.425"/><path fill="none" stroke="#1a1a1a" stroke-width="3" d="M115 358.333h636.002m-636.002 85h681.003m-681.003 68 723 .001m-723 68.999 763.677.001" transform="matrix(1.25732 0 0 1.27032 -137.522 -112.026)"/><path fill="#1a1a1a" d="M10.705 441.834v-21.74h13.701v2.653H13.663v6.555h8.963v2.654h-8.963v7.225h10.804v2.653zm22.12.366c-2.536 0-4.98-.732-6.458-2.622l1.93-1.677a6.04 6.04 0 0 0 4.497 2.013c1.75 0 3.53-.731 3.53-2.317 0-1.524-1.025-1.89-2.926-2.317l-2.022-.457c-2.143-.488-4.104-1.646-4.104-3.963 0-2.928 2.323-4.817 5.733-4.817 2.505 0 4.285.548 5.524 2.041l-1.871 1.616c-1.056-1.006-2.022-1.403-3.742-1.403-1.66 0-2.837.855-2.837 2.104 0 1.28 1.208 1.709 2.656 2.012l2.384.518c2.142.458 4.104 1.738 4.104 4.24-.002 3.382-3.351 5.029-6.399 5.029m13.698-.122c-2.022 0-4.044-.823-4.044-3.599v-9.757h-2.504v-2.255h2.474v-5.032h2.776v5.032h4.164v2.225h-4.164v9.208c0 1.31.694 1.8 1.84 1.8.906 0 1.72-.184 2.445-.397v2.257c-.994.365-2.322.518-2.987.518m11.134.122c-3.771 0-6.91-2.012-6.91-6.28v-3.232c0-4.33 2.927-6.618 6.609-6.618 3.41 0 6.127 2.104 6.127 6.129v2.743h-9.87v.977c0 2.317 1.6 3.903 4.165 3.903 1.418 0 2.746-.916 3.562-2.043l2.143 1.098c-1.358 2.225-3.502 3.323-5.826 3.323m3.08-10.03c0-2.136-1.117-3.721-3.41-3.721-2.233 0-3.712 1.432-3.712 3.66v.762h7.122zm11.707 10.03c-3.772 0-6.91-2.012-6.91-6.28v-3.232c0-4.33 2.926-6.618 6.608-6.618 3.41 0 6.127 2.104 6.127 6.129v2.743H68.4v.977c0 2.317 1.6 3.903 4.164 3.903 1.418 0 2.746-.916 3.562-2.043l2.143 1.098c-1.358 2.225-3.502 3.323-5.825 3.323m3.077-10.03c0-2.136-1.116-3.721-3.41-3.721-2.232 0-3.711 1.432-3.711 3.66v.762h7.121zm24.263 9.664v-9.665c0-2.349-1.026-3.66-2.927-3.66-2.143 0-3.682 1.923-3.682 4.3v9.025H90.4v-9.635c0-2.287-.935-3.69-2.927-3.69-1.72 0-3.681 1.557-3.681 4.208v9.117h-2.776v-15.43H83.7v2.288h.06c1.087-1.646 2.537-2.622 4.617-2.622 2.233 0 3.591 1.098 4.317 2.653 0 0 .12 0 .12-.03 1.087-1.585 2.626-2.621 4.829-2.621 3.017 0 4.92 2.073 4.92 5.06v10.702zm-80.91 173.13c-4.135 0-7.243-2.013-8.147-5.61l2.836-.884c.694 2.286 2.505 3.871 5.372 3.871 2.293 0 4.707-1.128 4.707-3.658 0-2.104-1.6-2.99-3.651-3.537-.694-.184-3.651-1.067-4.317-1.31-2.082-.793-3.802-2.379-3.802-5.154 0-3.964 3.108-6.19 7.061-6.19 3.44 0 6.217 1.22 7.363 4.362l-2.565 1.096c-.965-2.041-2.534-2.896-4.828-2.896-2.052 0-4.043 1.158-4.043 3.323 0 1.708 1.327 2.562 3.047 3.049.694.213 3.742 1.097 4.497 1.372 2.293.792 4.254 2.348 4.254 5.58.002 4.177-3.469 6.585-7.784 6.585m19.464-.366c-.03-.366-.121-1.22-.121-1.586h-.09c-1.268 1.372-2.596 1.92-4.406 1.92-2.897 0-5.282-1.523-5.282-4.419 0-3.598 3.289-4.879 5.915-4.879h3.802v-1.799c0-1.983-1.207-2.865-3.17-2.865-1.629 0-3.168.579-3.168 2.073v.488h-2.534v-.336c0-3.262 2.896-4.39 5.793-4.39 3.108 0 5.824 1.157 5.824 4.665v7.897c0 .915.09 2.561.242 3.232zm-.182-6.892h-3.65c-1.751 0-3.29.55-3.29 2.592 0 1.647 1.358 2.379 3.018 2.379 2.595 0 3.924-1.434 3.924-3.508v-1.463zm12.1-12.715c-1.087 0-1.841.61-1.841 1.709v2.62h2.987v2.136h-2.987v13.142h-2.776v-13.142h-2.535v-2.135h2.535v-1.982c0-1.556.241-4.666 4.285-4.666.513 0 1.056.061 1.539.092v2.286c-.393-.028-.815-.06-1.207-.06M60 614.963c-3.772 0-6.91-2.012-6.91-6.28v-3.232c0-4.33 2.927-6.617 6.608-6.617 3.41 0 6.127 2.104 6.127 6.128v2.744h-9.868v.977c0 2.317 1.599 3.902 4.164 3.902 1.418 0 2.746-.916 3.56-2.042l2.144 1.097c-1.358 2.226-3.501 3.323-5.825 3.323m3.078-10.03c0-2.135-1.116-3.72-3.41-3.72-2.233 0-3.713 1.432-3.713 3.659v.762h7.123zm10.35 9.908c-2.022 0-4.043-.823-4.043-3.598v-9.758H66.88v-2.254h2.475v-5.032h2.776v5.032h4.164v2.225h-4.164v9.207c0 1.311.694 1.8 1.84 1.8.906 0 1.72-.184 2.445-.396v2.256c-.996.366-2.324.518-2.988.518m10.682 2.257c-.935 2.622-2.715 3.507-4.798 3.507-.452 0-1.418-.092-1.96-.184v-2.378c.542.091 1.508.184 1.84.184 1.177 0 1.931-.518 2.323-1.556l.875-2.378-5.582-15.154h3.017l3.953 11.677h.06l3.833-11.677h2.837z"/><path fill="none" stroke="#1a1a1a" stroke-width="3" d="m115.099 651.333 805 .001" transform="matrix(1.25732 0 0 1.27032 -137.522 -112.026)"/></svg>